<?xml version="1.0" encoding="UTF-8"?>
<svg xmlns="http://www.w3.org/2000/svg" version="1.1" xmlns:xlink="http://www.w3.org/1999/xlink" viewBox="0 0 800 400">
  <!-- Generator: Adobe Illustrator 29.1.0, SVG Export Plug-In . SVG Version: 2.1.0 Build 142)  -->
  <defs>
    <style>
      .st0 {
        fill: #580acd;
      }

      .st1 {
        fill: url(#linear-gradient1);
      }

      .st2 {
        fill: #180f1e;
      }

      .st3 {
        display: none;
      }

      .st4 {
        fill: #f05e37;
      }

      .st5 {
        fill: url(#linear-gradient);
      }

      .st6 {
        fill: #edb680;
      }
    </style>
    <linearGradient id="linear-gradient" x1="282.2" y1="91.38" x2="94.29" y2="326.73" gradientTransform="translate(0 402) scale(1 -1)" gradientUnits="userSpaceOnUse">
      <stop offset=".11" stop-color="#580acd"/>
      <stop offset=".9" stop-color="#f05e37"/>
    </linearGradient>
    <linearGradient id="linear-gradient1" x1="261.35" y1="74.72" x2="73.44" y2="310.1" gradientTransform="translate(0 402) scale(1 -1)" gradientUnits="userSpaceOnUse">
      <stop offset=".12" stop-color="#f05e37"/>
      <stop offset=".91" stop-color="#580acd"/>
    </linearGradient>
  </defs>
  <g id="Layer_1">
    <g>
      <g>
        <path class="st4" d="M436.11,151.35c0,1.1-.61,1.59-1.59,1.59h-24.75c-.98,0-1.59-.49-1.59-1.59l2.3-51.68,1.9-13.19h-25.79c-.98,0-1.59-.61-1.59-1.59v-15.73c0-.98.61-1.59,1.59-1.59h71.09c.98,0,1.58.61,1.58,1.59v15.73c0,.98-.61,1.59-1.58,1.59l-22.36-.42-1.58,33.23,2.36,32.06Z"/>
        <path class="st4" d="M503.82,152.93h-25.03c-.85,0-1.46-.49-1.71-1.34l-17.8-82.31c-.24-1.1.37-1.71,1.46-1.71h23.66c.98,0,1.59.61,1.71,1.46l6.56,51.27,12.22-51.27c.24-.85.85-1.46,1.71-1.46h23.17c.85,0,1.59.49,1.83,1.34l8.13,58.39,10.77-58.27c.12-.85.73-1.46,1.71-1.46h21.46c1.1,0,1.71.61,1.46,1.71l-17.93,82.31c-.24.85-.85,1.34-1.71,1.34h-26.46c-.85,0-1.59-.49-1.83-1.34l-11.35-54.03-10.2,54.03c-.24.85-.98,1.34-1.83,1.34Z"/>
        <path class="st4" d="M604.04,151.35c0,.98-.61,1.59-1.58,1.59h-24.14c-.98,0-1.59-.61-1.59-1.59l1.81-49.78-1.81-32.41c0-.98.61-1.59,1.59-1.59h24.14c.98,0,1.58.61,1.58,1.59l-2.28,45.76,2.28,36.43Z"/>
        <path class="st4" d="M389.69,249.53c-1.12,0-1.82-.7-1.82-1.81v-14.45c0-1.12.7-1.82,1.82-1.82l54.39,1.03,34.5-1.03c1.12,0,1.82.7,1.82,1.82v14.45c0,1.12-.7,1.81-1.82,1.81l-49.79-1.57-39.1,1.57Z"/>
        <path class="st4" d="M604.81,128.87c-.17-1.09.28-1.72,1.38-1.78l23.87-1.14c.85-.04,1.61.41,1.77,1.38,2.15,6.61,7.27,9.18,15.31,8.79,7.55-.36,11.73-2.39,11.51-6.9-.64-13.4-52.32,1.15-54-34.17-.79-16.57,11.22-28.37,35.7-29.54,20.34-.97,36.02,5.24,40.56,23.7.17,1.09-.28,1.72-1.38,1.78l-24,1.14c-.97.05-1.48-.42-1.77-1.38-1.17-4.09-5.43-6.33-12.37-6-5.85.28-10.16,2.07-9.95,6.33.6,12.55,52.81-1.18,54.44,33.05.89,18.64-13.1,29.92-38.19,31.12s-38.86-8.52-42.89-26.4Z"/>
        <path class="st4" d="M728.62,151.35c0,1.1-.61,1.59-1.58,1.59h-24.76c-.98,0-1.58-.49-1.58-1.59l3.59-43.01-3.23-22.81-19.57.95c-.98,0-1.59-.61-1.59-1.59v-15.73c0-.98.61-1.59,1.59-1.59h68.71c.98,0,1.59.61,1.59,1.59v15.73c0,.98-.61,1.59-1.59,1.59l-21.95-.95-2.75,29.97,3.12,35.86Z"/>
        <path class="st4" d="M461.19,226.71c0,.82-.46,1.18-1.18,1.18h-18.12c-.73,0-1.18-.46-1.18-1.18l.73-30.77-.73-30.59c0-.73.46-1.18,1.18-1.18h45.25c.73,0,1.18.46,1.18,1.18v14.35c0,.73-.46,1.18-1.18,1.18l-27.53.76,1.22,9.27,24.18-.52c.73,0,1.18.46,1.18,1.18v15.39c0,.73-.46,1.18-1.18,1.18l-24.1-1.52.28,20.09Z"/>
        <path class="st4" d="M535.57,247.95c0,1.1-.61,1.59-1.59,1.59h-24.27c-.98,0-1.59-.61-1.59-1.59l.98-41.22-.98-40.97c0-.98.61-1.59,1.59-1.59h60.61c.98,0,1.58.61,1.58,1.59v15.73c0,.98-.61,1.59-1.58,1.59l-36.31-2.19-1.9,19.73,36.74-3.88c.98,0,1.58.61,1.58,1.59v18.29c0,.98-.61,1.59-1.58,1.59l-34.53-3.02,1.23,32.77Z"/>
        <path class="st4" d="M625.27,165.51l26.71,82.19c.37,1.1-.24,1.83-1.34,1.83h-24.39c-.85,0-1.46-.37-1.71-1.34l-5.45-18.58-26.87,2.36-4.51,16.22c-.24.98-.85,1.34-1.71,1.34h-24.27c-1.1,0-1.71-.73-1.34-1.83l30.54-82.19c.24-.85.98-1.34,1.83-1.34h30.8c.85,0,1.46.37,1.71,1.34ZM605.01,178.67l-7.18,32.81,19.42,1.89-12.24-34.71Z"/>
        <path class="st4" d="M687.06,247.95c0,1.1-.61,1.59-1.58,1.59h-24.76c-.98,0-1.58-.49-1.58-1.59l.73-41.58,3.41-24.58-25.73,1.29c-.98,0-1.59-.61-1.59-1.59v-15.73c0-.98.61-1.59,1.59-1.59h71.09c.98,0,1.59.61,1.59,1.59v15.73c0,.98-.61,1.59-1.59,1.59l-24.48-.97,2.16,24.26.73,41.58Z"/>
        <path class="st4" d="M779,232.09v15.85c0,.98-.61,1.59-1.59,1.59h-63.65c-.98,0-1.59-.61-1.59-1.59l.98-39.63-.98-42.56c0-.98.61-1.59,1.59-1.59h62.68c.98,0,1.58.61,1.58,1.59v15.73c0,.98-.61,1.59-1.58,1.59h-36.95l-1.29,15.01,34.09-2.57c.98,0,1.58.61,1.58,1.59v15.73c0,.98-.61,1.58-1.58,1.58l-35.52-2.96,2.71,19.06h37.92c.98,0,1.59.61,1.59,1.59Z"/>
        <path class="st4" d="M443.77,197.13l-17.48,29.95c-.27.55-.73.82-1.37.82h-25.23c-.64,0-1.09-.27-1.37-.82l-16.75-29.95c-.27-.55-.27-1.09,0-1.64l17.11-30.5c.27-.55.73-.82,1.37-.82h25.14c.64,0,1.09.27,1.37.82l17.21,30.5c.27.55.27,1.09,0,1.64ZM402.65,196.31l10.03,18.71,10.12-18.71-10.12-19.35-10.03,19.35Z"/>
      </g>
      <g>
        <path class="st0" d="M383.89,303.36c0-18.08,12.08-30.16,30.32-30.16,14.51,0,24.24,6.89,27.32,21,.16.73-.16,1.14-.89,1.14h-15.4c-.57,0-1.05-.32-1.14-.97-1.3-5.43-4.62-8.03-10.13-8.03-7.38,0-11.43,5.92-11.43,16.46s4.05,16.95,11.84,16.95c5.27,0,8.67-2.51,9.81-7.78.16-.65.49-.97,1.14-.97h15.65c.73,0,1.14.41.97,1.14-3.16,13.95-12.97,20.76-27.57,20.76-18.4,0-30.48-12.65-30.48-29.51Z"/>
        <path class="st0" d="M484.99,275.55l17.76,54.64c.24.73-.16,1.22-.89,1.22h-16.22c-.57,0-.97-.24-1.14-.89l-3.16-10.78h-18.32l-3,10.78c-.16.65-.57.89-1.14.89h-16.13c-.73,0-1.14-.49-.89-1.22l18.4-54.64c.16-.57.65-.89,1.22-.89h22.38c.57,0,.97.24,1.14.89ZM471.85,287.55l-5.11,18.57h10.54l-5.43-18.57Z"/>
        <path class="st0" d="M524.39,330.36c0,.73-.41,1.05-1.05,1.05h-16.13c-.65,0-1.05-.41-1.05-1.05l.65-27.4-.65-27.24c0-.65.41-1.05,1.05-1.05h40.29c.65,0,1.05.41,1.05,1.05v10.46c0,.65-.41,1.05-1.05,1.05h-23.11l-.32,10.78h22.46c.65,0,1.05.41,1.05,1.05v10.46c0,.65-.41,1.05-1.05,1.05h-22.46l.32,19.78Z"/>
        <path class="st0" d="M597.52,319.82v10.54c0,.65-.41,1.05-1.05,1.05h-42.32c-.65,0-1.05-.41-1.05-1.05l.65-26.35-.65-28.3c0-.65.41-1.05,1.05-1.05h41.67c.65,0,1.05.41,1.05,1.05v10.46c0,.65-.41,1.05-1.05,1.05h-24.57l-.24,8.27h22.05c.65,0,1.05.41,1.05,1.05v10.46c0,.65-.41,1.05-1.05,1.05h-22.05l.24,10.7h25.21c.65,0,1.05.41,1.05,1.05Z"/>
      </g>
    </g>
  </g>
  <g id="Logo-bg">
    <g id="Logo-bg1" data-name="Logo-bg">
      <g>
        <path class="st5" d="M327.17,164.92c-3.51-35.79-24.19-67.88-55.28-85.83l-40.11-23.16c-16.89-9.75-36.2-14.91-55.81-14.91s-38.92,5.16-55.81,14.91l-39.87,23.01c-34.55,19.95-56.03,57.13-56.05,97.05,0,21.24,5.62,42.19,16.24,60.6,10.64,18.42,25.98,33.76,44.4,44.4l52.68,30.41c11.85,6.83,25.12,10.27,38.42,10.27s26.58-3.42,38.42-10.27l39.79-22.97c23.69-13.68,38.42-39.18,38.42-66.54,0-22.76-9.3-45.06-25.51-61.18-1.71-1.69-4.25-2.05-6.35-.85-2.1,1.18-3.13,3.55-2.56,5.88.82,3.37,1.24,6.82,1.24,10.27v45.8c0,15.58-8.38,30.1-21.89,37.9l-39.66,22.9c-6.62,3.82-14.18,5.85-21.89,5.85s-15.26-2.01-21.89-5.85l-52.63-30.38c-27.17-15.68-44.04-44.91-44.04-76.29,0-28.06,15.08-54.18,39.39-68.22l39.79-22.97c24.29-14.02,54.47-14.02,78.77,0l52.68,30.41c18.71,10.8,34.31,26.4,45.11,45.11,1.4,2.43,2.74,4.93,3.98,7.46,1.14,2.35,3.72,3.5,6.24,2.79,2.51-.71,4.09-3.03,3.84-5.62l-.06.02Z"/>
        <path class="st1" d="M311.45,161.26c-10.64-18.42-25.98-33.76-44.4-44.4l-52.68-30.41c-23.69-13.68-53.13-13.68-76.84,0l-39.79,22.97c-23.69,13.68-38.42,39.18-38.42,66.54,0,22.76,9.3,45.06,25.53,61.18,1.71,1.69,4.25,2.03,6.35.85s3.13-3.55,2.56-5.88c-.82-3.37-1.24-6.82-1.24-10.27v-45.8c0-15.58,8.38-30.1,21.89-37.9l39.66-22.9c13.49-7.8,30.27-7.8,43.75,0l52.63,30.38c27.17,15.68,44.04,44.91,44.04,76.29,0,28.06-15.08,54.18-39.39,68.22l-39.79,22.97c-11.91,6.88-25.53,10.52-39.39,10.52s-27.46-3.64-39.39-10.52l-52.68-30.41c-18.71-10.8-34.31-26.4-45.11-45.11-1.4-2.43-2.74-4.95-3.98-7.46-1.14-2.35-3.72-3.5-6.24-2.79-2.51.71-4.09,3.03-3.84,5.62,3.51,35.79,24.19,67.88,55.28,85.83l40.11,23.16c17.21,9.94,36.52,14.91,55.81,14.91s38.6-4.96,55.81-14.91l39.87-23.01c34.55-19.95,56.03-57.13,56.05-97.05,0-21.24-5.62-42.19-16.24-60.6l.06-.02Z"/>
        <g>
          <g>
            <path class="st2" d="M72.67,289.96c4.06-.05,3.96-6.38-.18-6.22-3.98.16-3.8,6.27.18,6.22Z"/>
            <path class="st2" d="M73.26,295.54c2.48-1.98.71-5.74-2.51-5.19-.69.11-1.61.93-1.92,1.56-1.37,2.77,2.01,5.56,4.45,3.63h-.02Z"/>
            <path class="st2" d="M79.16,290.88c3.8-.06,3.61-5.96-.18-5.75-3.72.21-3.45,5.82.18,5.75Z"/>
            <path class="st2" d="M69.7,296.95c-2.93.5-2.87,5.12.1,5.53,4.43.61,4.34-6.29-.1-5.53Z"/>
            <path class="st2" d="M77.45,297.03c4.3.6,4.21-6.03-.1-5.3-2.79.48-2.72,4.9.1,5.3Z"/>
            <path class="st2" d="M76.19,298.34c-2.63.45-2.59,4.69.1,5.06,4.16.58,4.08-5.77-.1-5.06Z"/>
            <path class="st2" d="M75.37,304.83c-3.82.4-2.27,6.43,1.32,4.82,2.56-1.14,1.45-5.11-1.32-4.82Z"/>
            <path class="st2" d="M84.2,293.01c-3.79.21-2.59,6.3,1.11,4.83,2.58-1.03,1.66-4.98-1.11-4.83Z"/>
            <path class="st2" d="M82.8,299.63c-2.98.5-2.37,5.38.98,4.82,2.98-.5,2.37-5.38-.98-4.82Z"/>
            <path class="st2" d="M81.88,306.12c-1.56.18-2.55,1.84-1.97,3.3.79,2.01,3.66,2.01,4.45,0,.66-1.68-.71-3.5-2.48-3.3Z"/>
            <path class="st2" d="M90.88,299.11c3.17-.06,3.05-5.01-.18-4.83-3.09.18-2.88,4.88.18,4.83Z"/>
            <path class="st2" d="M89.05,300.9c-2.32.47-2.24,4.22.1,4.61,3.84.63,3.71-5.38-.1-4.61Z"/>
            <path class="st2" d="M88.25,307.28c-3.38.55-1.82,5.93,1.43,4.32,2.37-1.18,1.1-4.74-1.43-4.32Z"/>
            <path class="st2" d="M95.79,302.18c-2.74.45-2.18,4.71.66,4.37,2.87-.35,2.29-4.85-.66-4.37Z"/>
            <path class="st2" d="M94.5,308.67c-2.55.53-1.85,4.71,1,4.13,2.55-.53,1.85-4.71-1-4.13Z"/>
            <path class="st2" d="M93.47,315.28c-2.4.4-1.97,4.22.66,3.9,2.53-.31,2.08-4.37-.66-3.9Z"/>
            <path class="st2" d="M102.16,303.56c-.4.08-.97.58-1.14.93-.93,1.74,1.14,3.59,2.76,2.4,1.68-1.24.45-3.75-1.6-3.34h-.02Z"/>
            <path class="st2" d="M101.13,310.17c-2.18.45-1.55,3.9.76,3.43,2.18-.45,1.55-3.9-.76-3.43Z"/>
            <path class="st2" d="M100.21,316.78c-2.42.21-1.5,4.08.82,3.03,1.6-.73.92-3.19-.82-3.03Z"/>
            <path class="st2" d="M108.89,305.06c-2.34.26-1.18,3.96.89,2.74,1.43-.85.53-2.9-.89-2.74Z"/>
            <path class="st2" d="M107.73,311.8c-1.55.31-1.19,2.71.42,2.53,1.68-.19,1.32-2.87-.42-2.53Z"/>
            <path class="st2" d="M106.57,318.52c-1.26.27-.89,2.35.53,2.05,1.26-.27.89-2.35-.53-2.05Z"/>
            <path class="st2" d="M115.39,306.8c-1.55.27-.34,2.72.79,1.5.64-.69-.08-1.63-.79-1.5Z"/>
            <path class="st2" d="M105.3,325.14c-.61.18-.61,1.4,0,1.58,1.64.48,1.64-2.06,0-1.58Z"/>
            <path class="st2" d="M114.23,313.54c-.85.16-.64,1.53.29,1.35.85-.16.64-1.53-.29-1.35Z"/>
            <path class="st2" d="M113.05,320.14c-.29.1-.39.89.21.92.87.05.71-1.22-.21-.92Z"/>
            <path class="st2" d="M68.41,177.26c-3.82.6-3.17,6.9,1.22,6.2,3.82-.6,3.17-6.9-1.22-6.2Z"/>
            <path class="st2" d="M82.69,173.09c-3.95.48-3.35,6.46.55,6.24,4.19-.24,3.64-6.74-.55-6.24Z"/>
            <path class="st2" d="M76.44,171.93c-3.98.16-3.8,6.27.18,6.22,4.06-.05,3.96-6.38-.18-6.22Z"/>
            <path class="st2" d="M70.05,170.9c-3.98.16-3.8,6.27.18,6.22,4.06-.05,3.96-6.38-.18-6.22Z"/>
            <path class="st2" d="M83.61,166.83c-3.64.58-3.03,6.66,1.22,5.98,3.64-.58,3.03-6.66-1.22-5.98Z"/>
            <path class="st2" d="M77.11,165.67c-1.05.18-2.19,1.34-2.39,2.39-.55,3.24,3.61,5.01,5.48,2.34,1.58-2.26-.44-5.17-3.09-4.72Z"/>
            <path class="st2" d="M70.62,164.51c-1.05.18-2.19,1.34-2.39,2.39-.55,3.24,3.61,5.01,5.48,2.34,1.58-2.26-.44-5.17-3.09-4.72Z"/>
            <path class="st2" d="M71.88,163.89c4.58.6,4.5-6.49-.1-5.75-3.08.5-3.03,5.35.1,5.75Z"/>
            <path class="st2" d="M84.77,160.45c-3.51.6-2.84,6.45,1.22,5.74,3.51-.6,2.84-6.45-1.22-5.74Z"/>
            <path class="st2" d="M78.27,159.29c-3.51.6-2.84,6.45,1.22,5.74,3.51-.6,2.84-6.45-1.22-5.74Z"/>
            <path class="st2" d="M73.95,157.39c3.56-.45,2.9-6.12-.89-5.53-3.43.55-2.77,6,.89,5.53Z"/>
            <path class="st2" d="M81.21,158.16c2.79-1.22,1.6-5.56-1.42-5.25-4.17.44-2.55,6.99,1.42,5.25Z"/>
            <path class="st2" d="M85.82,154.18c-2.79.48-2.72,4.9.1,5.3,4.3.6,4.21-6.03-.1-5.3Z"/>
            <path class="st2" d="M74.2,150.67c4.16.58,4.08-5.77-.1-5.06-2.63.45-2.59,4.69.1,5.06Z"/>
            <path class="st2" d="M81.37,151.85c3.37-.19,3-5.53-.55-5.08-3.11.4-2.72,5.25.55,5.08Z"/>
            <path class="st2" d="M86.98,147.93c-2.88.6-2.21,5.51,1.22,4.82,2.88-.6,2.21-5.51-1.22-4.82Z"/>
            <path class="st2" d="M78.1,142.53c.66-1.68-.71-3.5-2.48-3.3-1.56.18-2.55,1.84-1.97,3.3.79,2.01,3.66,2.01,4.45,0Z"/>
            <path class="st2" d="M82.53,145.11c2.95-.27,2.61-5.03-.64-4.59-2.84.37-2.48,4.88.64,4.59Z"/>
            <path class="st2" d="M88.25,141.77c-2.32.4-2.26,4.06.1,4.37,3.51.47,3.42-4.98-.1-4.37Z"/>
            <path class="st2" d="M83.9,138.36c2.55-.53,1.85-4.71-1-4.13-2.55.53-1.85,4.71,1,4.13Z"/>
            <path class="st2" d="M94.74,143.05c-2.55.53-1.85,4.71,1,4.13,2.55-.53,1.85-4.71-1-4.13Z"/>
            <path class="st2" d="M89.52,135.52c-.47.08-1.05.52-1.31.9-1.11,1.71,1,3.84,2.71,2.71,1.85-1.21.71-3.96-1.42-3.63l.02.02Z"/>
            <path class="st2" d="M85.67,131.43c1.68-1.24.45-3.75-1.6-3.34-.4.08-.97.58-1.14.93-.93,1.74,1.14,3.59,2.76,2.4h-.02Z"/>
            <path class="st2" d="M96.26,136.79c-2.77.23-1.74,4.66.92,3.48,1.82-.81,1.06-3.63-.92-3.48Z"/>
            <path class="st2" d="M90.68,129.25c-2.18.45-1.55,3.9.76,3.43,2.18-.45,1.55-3.9-.76-3.43Z"/>
            <path class="st2" d="M102.4,138.18c-1.98.4-1.43,3.64.76,3.19,1.98-.4,1.43-3.64-.76-3.19Z"/>
            <path class="st2" d="M97.42,130.53c-2.42.21-1.5,4.08.82,3.03,1.6-.73.92-3.19-.82-3.03Z"/>
            <path class="st2" d="M93.39,125.58c1.02-1.19-.08-2.84-1.66-2.47-.26.06-.82.58-.92.82-.68,1.68,1.42,3.01,2.58,1.66v-.02Z"/>
            <path class="st2" d="M103.8,131.8c-2.34.26-1.18,3.96.89,2.74,1.43-.85.53-2.9-.89-2.74Z"/>
            <path class="st2" d="M98.1,124.39c-1.18.27-1.22,2.35-.08,2.71,2.56.79,2.76-3.32.08-2.71Z"/>
            <path class="st2" d="M99.5,117.89c-1.72.34-1.27,2.95.42,2.76,1.85-.21,1.4-3.11-.42-2.76Z"/>
            <path class="st2" d="M104.95,125.42c-2.11.24-1.16,3.59.81,2.55,1.32-.71.61-2.71-.81-2.55Z"/>
            <path class="st2" d="M109.94,133.2c-1.03.26-1.08,2.11-.08,2.47,2.39.82,2.56-3.09.08-2.47Z"/>
            <path class="st2" d="M106.22,119.18c-1.61.05-1.51,2.53.08,2.47,1.61-.05,1.51-2.53-.08-2.47Z"/>
            <path class="st2" d="M111.21,126.82c-1.02.23-1.06,1.93-.08,2.24,2.1.64,2.24-2.74.08-2.24Z"/>
            <path class="st2" d="M107.15,113.01c-1.06.23-.84,2.11.53,1.8,1.06-.23.84-2.11-.53-1.8Z"/>
            <path class="st2" d="M112.37,120.66c-.61.18-.61,1.4,0,1.58,1.64.48,1.64-2.06,0-1.58Z"/>
            <path class="st2" d="M117.82,128.32c-.98.18-.77,1.66.19,1.61,1.1-.06.9-1.8-.19-1.61Z"/>
            <path class="st2" d="M113.52,114.64c-.29.1-.39.89.21.92.87.05.71-1.22-.21-.92Z"/>
            <path class="st2" d="M118.98,122.16c-.55.15-.34,1.08.31.9.55-.15.34-1.08-.31-.9Z"/>
            <path class="st2" d="M276.13,109.77c-3.09.52-3.03,5.56.1,6,4.95.68,4.83-6.82-.1-6Z"/>
            <path class="st2" d="M285.72,103.95c4.05-.23,3.55-6.49-.55-6-3.8.47-3.24,6.22.55,6Z"/>
            <path class="st2" d="M277.4,103.39c-3.51.6-2.84,6.45,1.22,5.74,3.51-.6,2.84-6.45-1.22-5.74Z"/>
            <path class="st2" d="M279.58,102.66c3.56-.45,2.9-6.12-.89-5.53-3.43.55-2.77,6,.89,5.53Z"/>
            <path class="st2" d="M271.04,102.47c-3.22.47-2.77,5.82.98,5.27,3.22-.47,2.77-5.82-.98-5.27Z"/>
            <path class="st2" d="M280.74,96.05c3.38-.42,2.8-5.88-.89-5.3-3.26.52-2.69,5.75.89,5.3Z"/>
            <path class="st2" d="M273.18,101.24c3.13-.5,2.58-5.61-.98-5.04-3.13.5-2.58,5.61.98,5.04Z"/>
            <path class="st2" d="M273.87,94.73c3.3-.05,3.21-5.06-.08-5.01-3.3.05-3.21,5.06.08,5.01Z"/>
            <path class="st2" d="M264.41,101.65c-2.5.44-2.47,4.56.21,4.85,3.93.42,3.77-5.53-.21-4.85Z"/>
            <path class="st2" d="M266.46,99.99c3.19-.35,2.58-5.33-.66-4.83-3.08.47-2.45,5.19.66,4.83Z"/>
            <path class="st2" d="M267.39,93.49c3.17-.06,3.05-5.01-.18-4.83-3.09.18-2.88,4.88.18,4.83Z"/>
            <path class="st2" d="M258.03,100.61c-2.34.44-2.29,4.34.21,4.61,3.77.44,3.58-5.3-.21-4.61Z"/>
            <path class="st2" d="M268.1,87.01c3.77.44,3.58-5.3-.21-4.61-2.34.44-2.29,4.34.21,4.61Z"/>
            <path class="st2" d="M260.3,98.7c2.8-.48,2.26-5.14-.98-4.58-2.8.48-2.26,5.14.98,4.58Z"/>
            <path class="st2" d="M260.9,92.23c3.09-.08,2.84-4.96-.31-4.61-2.88.32-2.53,4.69.31,4.61Z"/>
            <path class="st2" d="M261.61,85.72c3.51.47,3.42-4.98-.1-4.37-2.32.4-2.26,4.06.1,4.37Z"/>
            <path class="st2" d="M253.36,97.41c2.82-.06,2.74-4.38-.08-4.32s-2.74,4.38.08,4.32Z"/>
            <path class="st2" d="M253.19,90.43c1.74,1.4,4.08-.58,3.08-2.5-.34-.66-1.19-1.19-1.95-1.13-1.77.15-2.61,2.43-1.14,3.63h.02Z"/>
            <path class="st2" d="M256.48,84.1c1.9-.89,1.06-3.84-1-3.67-2.98.24-1.84,5,1,3.67Z"/>
            <path class="st2" d="M247.59,95.73c1.82-.81,1.06-3.63-.92-3.48-2.77.23-1.74,4.66.92,3.48Z"/>
            <path class="st2" d="M247.8,89.33c2.59.18,2.39-3.79-.32-3.22-1.58.32-1.6,3.09.32,3.22Z"/>
            <path class="st2" d="M249.52,82.69c1.79-.37,1.37-3.4-.76-2.97-1.79.37-1.37,3.4.76,2.97Z"/>
            <path class="st2" d="M240.98,94.22c1.32-.71.61-2.71-.81-2.55-2.11.24-1.16,3.59.81,2.55Z"/>
            <path class="st2" d="M249.73,75.93c2.39.82,2.56-3.09.08-2.47-1.03.26-1.08,2.11-.08,2.47Z"/>
            <path class="st2" d="M241.01,87.66c2.1.64,2.24-2.74.1-2.24-1.02.23-1.06,1.93-.1,2.24Z"/>
            <path class="st2" d="M242.27,80.95c1.76.53,1.76-2.34,0-1.8-.74.23-.74,1.58,0,1.8Z"/>
            <path class="st2" d="M243.85,74.33c1.02-.05.93-1.61-.08-1.55-1.02.05-.93,1.61.08,1.55Z"/>
            <path class="st2" d="M234.94,85.97c1.11.18,1-1.47-.1-1.14-.47.15-.47,1.05.1,1.14Z"/>
            <path class="st2" d="M236.31,79.34c.55-.15.34-1.08-.31-.9-.55.15-.34,1.08.31.9Z"/>
            <path class="st2" d="M275.55,219.55c5.12.87,5.12-7.07,0-6.2-3.19.55-3.19,5.67,0,6.2Z"/>
            <path class="st2" d="M268.91,224.79c4.19-.24,3.64-6.74-.55-6.24-3.95.48-3.35,6.46.55,6.24Z"/>
            <path class="st2" d="M275.4,225.95c4.19-.24,3.64-6.74-.55-6.24-3.95.48-3.35,6.46.55,6.24Z"/>
            <path class="st2" d="M281.66,227.11c4.16-.06,3.93-6.58-.31-6.24-3.95.31-3.61,6.3.31,6.24Z"/>
            <path class="st2" d="M279.96,227.48c-3.64.58-3.03,6.66,1.22,5.98,3.64-.58,3.03-6.66-1.22-5.98Z"/>
            <path class="st2" d="M274.68,232.3c3.64-.58,3.03-6.66-1.22-5.98-3.64.58-3.03,6.66,1.22,5.98Z"/>
            <path class="st2" d="M268.18,231.14c3.64-.58,3.03-6.66-1.22-5.98-3.64.58-3.03,6.66,1.22,5.98Z"/>
            <path class="st2" d="M278.8,234.1c-3.08.5-3.03,5.35.1,5.75,4.58.6,4.5-6.49-.1-5.75Z"/>
            <path class="st2" d="M273.52,238.68c3.51-.6,2.84-6.45-1.22-5.74-3.51.6-2.84,6.45,1.22,5.74Z"/>
            <path class="st2" d="M267.02,237.52c3.51-.6,2.84-6.45-1.22-5.74-3.51.6-2.84,6.45,1.22,5.74Z"/>
            <path class="st2" d="M277.76,240.6c-3.43.55-2.77,6,.89,5.53,3.56-.45,2.9-6.12-.89-5.53Z"/>
            <path class="st2" d="M271.5,239.44c-3.48.29-3.19,5.59.31,5.54,3.67-.06,3.51-5.85-.31-5.54Z"/>
            <path class="st2" d="M266.76,243.4c2.42-1.64.93-5.41-2.11-4.9-.61.1-1.37.69-1.69,1.21-1.53,2.42,1.43,5.3,3.8,3.69Z"/>
            <path class="st2" d="M276.48,247.32c-2.63.45-2.59,4.69.1,5.06,4.16.58,4.08-5.77-.1-5.06Z"/>
            <path class="st2" d="M270.21,246.16c-3.11.4-2.72,5.25.55,5.08,3.37-.19,3-5.53-.55-5.08Z"/>
            <path class="st2" d="M264.83,249.93c2.88-.6,2.21-5.51-1.22-4.82-2.88.6-2.21,5.51,1.22,4.82Z"/>
            <path class="st2" d="M275.79,253.92c-3.09.18-2.88,4.88.18,4.83,3.17-.06,3.05-5.01-.18-4.83Z"/>
            <path class="st2" d="M269.05,252.88c-3.38.55-1.82,5.93,1.43,4.32,2.37-1.18,1.1-4.74-1.43-4.32Z"/>
            <path class="st2" d="M263.33,256.21c2.87-.35,2.29-4.85-.66-4.37-2.74.45-2.18,4.71.66,4.37Z"/>
            <path class="st2" d="M268.01,259.61c-2.95.5-1.66,5.25,1.27,3.93,2.18-.98,1.13-4.34-1.27-3.93Z"/>
            <path class="st2" d="M257.45,254.73c2.18-.98,1.13-4.34-1.27-3.93-2.95.5-1.66,5.25,1.27,3.93Z"/>
            <path class="st2" d="M262.83,262.19c1.95-1.05.81-3.93-1.19-3.64-2.98.44-1.53,5.11,1.19,3.64Z"/>
            <path class="st2" d="M266.85,266.22c-2.24.35-1.85,4.08.76,3.66,2.24-.35,1.85-4.08-.76-3.66Z"/>
            <path class="st2" d="M255.47,261.1c2.47-.05,2.26-3.98-.55-3.46-1.76.32-1.79,3.5.55,3.46Z"/>
            <path class="st2" d="M260.9,268.62c2.29-.21,1.89-3.79-.42-3.45-2.18.31-1.74,3.66.42,3.45Z"/>
            <path class="st2" d="M249.07,259.81c2.13-.19,1.79-3.53-.42-3.22-2,.29-1.66,3.42.42,3.22Z"/>
            <path class="st2" d="M254.27,267.43c2.08-.06,1.97-3.22-.08-3.17-2.08.06-1.97,3.22.08,3.17Z"/>
            <path class="st2" d="M259.19,271.91c-1.6.29-1.53,2.95.32,3,2.24.05,2.06-3.42-.32-3Z"/>
            <path class="st2" d="M252.92,273.6c2.29.34,2.21-3.22-.1-2.76-1.39.29-1.35,2.53.1,2.76Z"/>
            <path class="st2" d="M247.59,266.08c2.29.34,2.21-3.22-.1-2.76-1.39.29-1.35,2.53.1,2.76Z"/>
            <path class="st2" d="M252.7,279.9c1.32-.71.61-2.71-.81-2.55-2.11.24-1.16,3.59.81,2.55Z"/>
            <path class="st2" d="M246.12,272.28c2.39.82,2.56-3.09.08-2.47-1.03.26-1.08,2.11-.08,2.47Z"/>
            <path class="st2" d="M241.83,264.75c1.37-.44.95-2.88-.85-2.48-1.51.35-1.02,3.06.85,2.48Z"/>
            <path class="st2" d="M245.07,278.66c2.1.64,2.24-2.74.1-2.24-1.02.23-1.06,1.93-.1,2.24Z"/>
            <path class="st2" d="M240.37,271.18c1.5-.18,1.22-2.61-.42-2.29-1.37.26-1.1,2.47.42,2.29Z"/>
            <path class="st2" d="M244.65,284.96c1.06-.23.84-2.11-.53-1.8-1.06.23-.84,2.11.53,1.8Z"/>
            <path class="st2" d="M238.66,277.18c1.64.48,1.64-2.06,0-1.58-.61.18-.61,1.4,0,1.58Z"/>
            <path class="st2" d="M233.76,269.64c1.02-.05.93-1.61-.08-1.55-1.02.05-.93,1.61.08,1.55Z"/>
            <path class="st2" d="M232.82,275.68c.55-.15.34-1.08-.31-.9-.55.15-.34,1.08.31.9Z"/>
            <path class="st2" d="M238.03,283.34c.55-.15.34-1.08-.31-.9-.55.15-.34,1.08.31.9Z"/>
            <path class="st2" d="M333.84,215.23c0-3.29-.23-3.29-.23-6.58s.03-3.29.03-6.58-.52-3.29-.52-6.58.64-3.29.64-6.58-.61-3.29-.6-6.58c.02-3.29.39-3.29.39-6.58,0-2.27-.56-4.53-.69-6.8-.13-2.27-.26-4.53-.53-6.78-.26-2.26-.4-4.53-.81-6.77s-.45-4.56-.98-6.77c-.53-2.21-1.34-4.37-2-6.54s-.93-4.5-1.71-6.64-2.5-3.9-3.4-6-1.84-4.14-2.85-6.17c-1.02-2.03-2.05-4.05-3.17-6.01s-1.66-4.34-2.9-6.24c-1.26-1.9-2.61-3.75-3.98-5.58-1.35-1.82-3.35-3.16-4.8-4.9-1.47-1.74-2.98-3.42-4.54-5.08-1.56-1.66-3.06-3.35-4.72-4.92-1.66-1.56-3.38-3.01-5.12-4.48-1.74-1.47-3.34-3.11-5.16-4.48-1.82-1.35-3.75-2.56-5.66-3.82s-3.66-2.74-5.62-3.88c-2.87-1.66-3.01-1.4-5.87-3.06-2.87-1.66-3.06-1.32-5.91-2.98-2.87-1.66-2.4-2.47-5.27-4.11-2.87-1.66-3.13-1.19-6-2.85s-2.93-1.53-5.8-3.19c-2.87-1.66-2.53-2.22-5.4-3.88s-3.29-.93-6.14-2.59c-1.98-1.14-3.8-2.53-5.83-3.55-2.03-1.02-4.05-2.1-6.14-3s-4.11-2.03-6.25-2.8-4.43-1.14-6.61-1.8-4.3-1.58-6.51-2.11-4.53-.69-6.77-1.08c-2.24-.4-4.51-.56-6.78-.84-2.26-.26-4.5-.92-6.77-1.05s-4.58.32-6.85.32-4.53.31-6.8.44c-2.27.13-4.61-.37-6.87-.11s-4.42,1.26-6.66,1.66-4.54.45-6.77.97c-2.21.53-4.3,1.5-6.49,2.16-2.18.66-4.27,1.51-6.41,2.29-2.14.77-4.27,1.53-6.35,2.43-2.1.9-4.22,1.69-6.25,2.71-2.03,1.02-4,2.14-5.96,3.29-2.85,1.64-2.82,1.69-5.67,3.34s-3.01,1.35-5.85,3c-2.85,1.64-2.87,1.61-5.71,3.26-2.85,1.64-2.93,1.5-5.79,3.14s-2.55,2.18-5.4,3.82c-2.85,1.64-3.17,1.08-6.03,2.72-2.85,1.64-2.59,2.1-5.43,3.74-1.98,1.14-4.03,2.18-5.93,3.43-1.92,1.26-3.9,2.42-5.72,3.79-1.84,1.37-3.67,2.76-5.41,4.22-1.76,1.47-3.53,2.93-5.19,4.5-1.66,1.56-3.4,3.09-4.96,4.77-1.56,1.66-2.8,3.64-4.27,5.4s-2.56,3.79-3.93,5.62c-1.37,1.84-3.05,3.43-4.3,5.35-1.26,1.9-2.61,3.77-3.75,5.75-1.14,1.98-2.34,3.95-3.35,6-1.03,2.05-1.34,4.42-2.24,6.51-.9,2.1-1.95,4.13-2.72,6.27s-1.85,4.21-2.5,6.38c-.66,2.19-.73,4.53-1.26,6.75-.53,2.22-1.56,4.34-1.95,6.59-.4,2.24,0,4.61-.27,6.88-.27,2.27-1.37,4.46-1.5,6.74s.56,4.58.56,6.87v.15c0,3.29.02,3.26.02,6.54s-.24,3.29-.24,6.58-.44,3.29-.44,6.58.08,3.29.08,6.58.06,3.29.06,6.58.4,3.29.4,6.58-.66,3.29-.66,6.58c0,2.27.44,4.56.58,6.83.13,2.27.03,4.58.31,6.85.26,2.26,1.05,4.46,1.45,6.7s.89,4.46,1.4,6.67c.53,2.21.82,4.5,1.48,6.67s1.98,4.13,2.77,6.27c.77,2.14,1.16,4.43,2.06,6.51.9,2.1,2.06,4.05,3.09,6.09,1.02,2.03,1.5,4.37,2.63,6.35,1.14,1.98,3.05,3.48,4.29,5.38,1.26,1.9,2.42,3.85,3.77,5.67s2.88,3.51,4.35,5.25,2.98,3.42,4.54,5.06c1.56,1.66,3.13,3.29,4.79,4.85,1.66,1.56,3.3,3.13,5.04,4.58,1.74,1.47,3.34,3.11,5.16,4.48,1.82,1.35,3.64,2.74,5.54,4s4.13,1.98,6.09,3.13c2.87,1.66,2.66,2.01,5.51,3.67,2.87,1.66,3.05,1.34,5.91,3s2.5,2.27,5.37,3.93,2.87,1.64,5.74,3.3,2.93,1.55,5.8,3.19c2.87,1.66,2.77,1.82,5.64,3.48s3.21,1.06,6.08,2.72c1.98,1.14,3.74,2.68,5.77,3.69,2.03,1.02,4.37,1.42,6.45,2.32,2.1.9,4.05,2.16,6.17,2.93,2.14.77,4.46.97,6.66,1.61,2.18.66,4.29,1.5,6.51,2.01,2.21.53,4.34,1.51,6.59,1.92,2.24.4,4.54.42,6.82.69,2.26.26,4.51.87,6.78,1,2.27.13,4.58-.74,6.85-.74s4.56.44,6.83.31,4.59.1,6.85-.18c2.26-.26,4.4-1.43,6.64-1.84s4.45-.89,6.66-1.42c2.21-.53,4.66-.23,6.83-.89s4.11-2.11,6.24-2.88c2.14-.77,4.54-.9,6.64-1.8,2.1-.9,4.03-2.18,6.06-3.19,2.03-1.02,4.19-1.85,6.16-3,2.85-1.64,2.68-1.95,5.51-3.59,2.85-1.64,2.9-1.53,5.75-3.17,1.9-1.1,3.8-2.19,5.69-3.29,2.85-1.64,2.59-2.1,5.43-3.74,2.85-1.64,3.09-1.21,5.95-2.85s2.88-1.58,5.74-3.22,2.61-2.05,5.46-3.69c1.98-1.14,4.25-1.82,6.17-3.08s3.5-3,5.33-4.37,3.84-2.53,5.59-4c1.76-1.47,3.38-3.09,5.04-4.66s3.38-3.09,4.95-4.75,2.72-3.71,4.19-5.45c1.47-1.76,2.79-3.59,4.16-5.43s2.66-3.69,3.92-5.59c1.26-1.9,2.76-3.66,3.9-5.64,1.14-1.98,2-4.11,3.01-6.14,1.03-2.05,2.13-4.03,3.03-6.12s1.45-4.32,2.24-6.46c.77-2.14,1.71-4.22,2.37-6.41s1.45-4.34,1.97-6.56c.53-2.22.93-4.46,1.34-6.72.4-2.24.77-4.5,1.05-6.77s.37-4.54.5-6.83c.13-2.27-.1-4.66-.08-6.95,0-3.29.73-3.29.73-6.58l-.08-.05ZM300.29,111.94l.69,1.63-1.39.93c.13-.37-1.11-1.29-1.05-1.39.73-.15,1.19-.73,1.74-1.16v-.02ZM294.6,104l.58-.98c0,1.18.53,2.51,1.63,3.01l-.06.23c-1.16.08-1.87.95-2.59,1.74-.1-.87-.63-1.6-1.29-2.14l-1.03-.53c1.13-.05,2.06-.44,2.77-1.34v.02ZM293.32,118.91l-1.27.81-1.05-1.39,1.63-.93c-.13.39.77,1.39.69,1.5v.02ZM293.15,113.91c-.47-.9-.95-1.5-1.8-2.08,1.18,0,1.63-.71,2.3-1.43.1-.1.08-.1.24-.08-.02.35.11.66.24.97.24.53.69.84.92,1.35-.84.08-1.37.73-1.92,1.27h.02ZM27.86,168.9c.16-2.37.48-4.72.81-7.06.31-2.35,1.29-4.58,1.74-6.9.47-2.32.55-4.72,1.16-6.99.61-2.29,1.32-4.54,2.08-6.78s2.03-4.29,2.93-6.46,1.71-4.4,2.74-6.51c1.05-2.11,1.97-4.3,3.14-6.35s2.39-4.09,3.71-6.04c1.31-1.97,3-3.66,4.45-5.53,1.43-1.87,2.97-3.66,4.53-5.43,1.55-1.77,3.03-3.61,4.71-5.29s3.61-3.03,5.38-4.59c1.77-1.55,3.21-3.51,5.08-4.96,1.87-1.43,4.14-2.3,6.11-3.63,1.95-1.31,3.71-2.93,5.77-4.13,2.85-1.64,2.95-1.48,5.79-3.13,2.85-1.64,2.8-1.72,5.64-3.37,2.85-1.64,2.64-2.01,5.48-3.66,2.85-1.64,3.29-.9,6.12-2.55,2.85-1.64,2.61-2.06,5.46-3.71,2.85-1.64,2.84-1.66,5.69-3.3,2.85-1.64,2.92-1.53,5.77-3.17,2.05-1.18,4.21-2.1,6.3-3.13,2.11-1.05,3.96-2.68,6.12-3.56,2.18-.9,4.46-1.55,6.69-2.3,2.22-.76,4.66-.85,6.91-1.45,2.27-.61,4.51-1.22,6.82-1.69,2.3-.45,4.56-1.24,6.88-1.55,2.34-.31,4.69-.37,7.03-.53,2.35-.15,4.69-.58,7.04-.58s4.69.61,7.03.76,4.64.56,6.98.85c2.32.31,4.66.48,6.96.95,2.3.45,4.58.98,6.85,1.6,2.27.6,4.43,1.47,6.67,2.22,2.22.76,4.63,1,6.82,1.9,2.16.9,4.22,2.06,6.33,3.11,2.1,1.03,3.95,2.53,6,3.71,2.87,1.66,3.34.84,6.2,2.48,2.87,1.66,2.69,1.97,5.54,3.61,1.5.87,2.24,1.22,3.01,1.61.15.29.45.48.79.4.52.27,1.14.6,2.03,1.11,2.87,1.66,2.72,1.9,5.59,3.56,1.53.89,2.21,1.35,2.95,1.84-.32.19-.6.52-.73.85-.73,1.85,1.55,3.35,2.95,2.01.24-.23.47-.71.55-1.16,1.16.66,1.87,1.02,2.5,1.31.24,1.42,1.85,2.37,3.19,1.63.03.02.06.03.1.05,2.87,1.66,2.95,1.51,5.82,3.16,1.1.63,2.13,1.27,3.14,1.92-2.47,2.87,2.32,5.96,3.95,2.59.6.39,1.18.77,1.77,1.16.34,1.03,1.37,1.61,2.4,1.69.06.05.13.1.18.13,1.1.82,2.14,1.79,3.19,2.76-2.92,3.06,1.71,7.11,4.35,3.74.97.77,1.92,1.55,2.82,2.43.16.16.31.32.47.48l-.27-.27c-3.13.18-4.48,3.9-1.9,5.85l.92.53c-1.14-.02-2.26.5-2.95,1.4l-.53,1.03c.23-3.53-4.71-4.69-6.01-1.43-1.27,3.19,2.56,5.74,5.09,3.46l.81-1.22c0,1.35.71,2.34,1.74,3.13-.69.03-1.61.48-2.1.98-.24.24-.32.58-.58.76-.93-4.16-6.99-3.24-6.49,1.1.13,1.1.93,1.85,1.74,2.5-.98.06-1.93.63-2.48,1.43-.24-.18-.47-.34-.71-.5,0-.03-.02-.06-.03-.08-.48-1.02-1.55-1.66-2.64-1.76-.19-.13-.37-.26-.56-.37-1.02-.66-1.92-1.51-2.84-2.32.08-.1.15-.19.21-.29,1.22-2.19-.56-4.61-3.03-4.19-.69.11-1.4.68-1.84,1.37-.58-.32-1.05-.58-1.68-.93-.44-.87-1.34-1.42-2.4-1.35-2.53-1.39-3.01-.9-5.79-2.51-2.14-1.24-2.74-1.69-4.05-2.5,1.06-1.68-.37-3.69-2.35-3.35-.6.1-1.14.63-1.45,1.14-1.18-.66-1.74-.95-3.8-2.14-2.93-1.69-2.95-1.64-5.88-3.32-2.93-1.69-2.77-1.97-5.7-3.64-.1-.05-.16-.1-.26-.15-.1-.19-.32-.29-.55-.32-2.16-1.22-2.48-1.29-5.11-2.8-2.93-1.69-2.76-2-5.69-3.69-2.93-1.69-3.08-1.45-6-3.14-2.1-1.21-4.38-1.97-6.54-2.98-2.19-1.02-4.06-2.79-6.3-3.61-2.27-.82-4.74-1.05-7.06-1.66-2.32-.61-4.69-1-7.06-1.42-2.37-.42-4.67-1.39-7.07-1.6s-4.83.52-7.24.52-4.8-.24-7.2-.03c-2.39.21-4.8.4-7.17.81-2.37.42-4.8.64-7.12,1.27-2.32.61-4.51,1.69-6.78,2.51-2.26.82-4.63,1.42-6.82,2.43-2.18,1.02-4.17,2.4-6.27,3.61-2.84,1.64-2.76,1.77-5.61,3.42-2.84,1.64-3.06,1.24-5.91,2.88-2.84,1.64-2.58,2.1-5.41,3.74s-2.72,1.85-5.56,3.48c-2.84,1.64-3.19,1.02-6.04,2.66-2.84,1.64-2.5,2.22-5.35,3.87s-3.05,1.27-5.9,2.92c-2.1,1.21-3.9,2.84-5.85,4.21-1.98,1.39-3.75,2.95-5.59,4.5s-3.64,3.09-5.33,4.79c-1.71,1.71-3.43,3.34-4.98,5.17s-2.95,3.77-4.32,5.74-2.61,4.01-3.8,6.09-2.59,4.05-3.61,6.22-1.97,4.38-2.8,6.64c-.82,2.26-1.72,4.5-2.35,6.83-.63,2.32-.55,4.79-.98,7.16-.42,2.35-1.39,4.66-1.6,7.06-.21,2.39.21,4.8.21,7.22s-.11,4.59.06,6.87c.18,2.29.24,4.59.58,6.85.34,2.27.73,4.54,1.24,6.77.52,2.24,1.03,4.5,1.71,6.67.68,2.19,1.32,4.43,2.16,6.56s2.13,4.09,3.13,6.16,2.42,3.88,3.56,5.88,1.97,4.16,3.26,6.06c1.29,1.89,2.51,3.85,3.95,5.64,1.42,1.79,2.85,3.63,4.4,5.3,1.55,1.68,3.67,2.8,5.37,4.37,1.68,1.56,3.26,3.21,5.04,4.64,1.79,1.42,3.42,3.09,5.32,4.38,1.89,1.29,4.11,2.06,6.11,3.21,3.24,1.87,2.95,2.37,6.19,4.24s3.61,1.24,6.85,3.11c1.66.95,1.6,1.06,3.26,2.03,3.24,1.87,3.08,2.13,6.32,4,3.24,1.87,3.46,1.47,6.69,3.34,3.24,1.87,2.93,2.39,6.17,4.25s3.46,1.47,6.7,3.32c3.24,1.87,3.11,2.08,6.35,3.95,2,1.16,1.84,1.45,3.84,2.61,1.8,1.05,3.74,1.92,5.64,2.71,1.93.79,4.03,1.08,6.03,1.61,2.01.53,3.93,1.6,6,1.87s4.19.03,6.27.03,4.21.16,6.27-.11c2.06-.27,4.03-1.13,6.04-1.66,2-.53,3.95-1.21,5.88-2.01,1.9-.79,3.92-1.43,5.72-2.48,2.84-1.63,2.51-2.21,5.33-3.84,2.84-1.63,3.08-1.21,5.91-2.85,2.84-1.63,2.72-1.84,5.54-3.46,2.84-1.64,3.17-1.03,6.01-2.68,2.84-1.63,2.42-2.35,5.25-3.98,2.84-1.64,2.92-1.5,5.75-3.13,2.84-1.64,2.76-1.77,5.59-3.4,2.08-1.19,3.98-2.53,5.82-4.01,1.87-1.48,3.61-3.05,5.21-4.77.42-.45.84-.92,1.24-1.37l-.66.81c.16.15,1.19-.89,1.05-1.26,1-1.18,1.97-2.39,2.84-3.66.26-.39.53-.77.79-1.14,1.4,2.48,4.96,1.35,4.45-1.61-.16-.93-1.24-1.77-2.24-1.74.26-.44.5-.89.73-1.35.47.06,1.4-.19,1.64-.32,1.69-.87,1.87-3.3.44-4.42.23-.6.44-1.19.63-1.79,1.85-.69,2.39-3.32.87-4.74l-.05.16c.1-.9.18-1.79.31-2.69.02-.16.05-.31.08-.47l-.16,1.37c2.11-.73,2.51-3.74.81-5.09.06-.39.11-.77.15-1.16,2.93-.84,2.87-5.19-.18-5.88,0-.13-.02-.24-.03-.39,2.98.44,4.82-3.14,2.74-5.41l-1.27-.87c1.29.11,2.64-.64,3.13-1.85.15-.03.1.03.15.15.13.31.15.66.31.98.39.81,1.5,1.79,2.45,1.77.03.19-.16.11-.29.11-.89.05-1.35-.02-2.14.53-2.14,1.5-1.51,5.16,1.03,5.69,3.46.71,5.38-3.32,2.79-5.58l-1.16-.63c1.51.13,2.59-.68,3.42-1.85.27,2.92,4.09,4.03,5.9,1.72l.64-1.03c-.11,1.1.5,2.24,1.4,2.84l1.03.53c-3.4-.44-4.87,4.34-1.89,5.9,3.45,1.82,6.45-2.77,3.51-5.25l-1.26-.64c1.11.13,2.1-.23,2.88-1l.82-1.43c-.13,1.24.52,2.56,1.64,3.14,0,.16.03.32.03.48-3.61.6-3.59,5.64.03,6.2v.35c-2.71-.5-4.92,2.3-3.34,4.74.48.76,1.48,1.35,2.43,1.39-.02.18-.05.35-.06.55-1.26-.39-2.64,0-3.43,1.13-1.66,2.39.69,5.41,3.37,4.64-.03.4-.08.82-.15,1.22v.05c-.63-.71-1.71-.82-2.61-.68-.9.16-2.03,1.34-2.16,2.24-.27,2.01,1,3.5,2.87,3.56-.11.29-.21.56-.31.85-3.51-.85-5.01,4.32-1.48,5.33-.13.42-.27.85-.42,1.26-2.16.05-3.32,2.53-2,4.22-.45.84-.9,1.66-1.35,2.5-1.06,2.06-1.9,4.22-3.16,6.17-.1.15-.19.27-.27.42-.4-.74-1.45-1.26-2.24-1.18-1.89.21-2.63,2.66-1.14,3.87.26.21.68.42,1.1.48-.52.66-1.03,1.32-1.55,1.98-1.43,1.82-2.92,3.56-4.53,5.24-.39.4-.76.84-1.13,1.27-.32-.32-.85-.55-1.24-.53-1.61.05-2.22,2.18-.92,3.08h0c-.44.48-.89.93-1.39,1.37-1.19,1.05-2.58,1.85-3.95,2.71.08-.84-.55-1.74-1.76-1.48-1.39.29-1.29,2.34-.1,2.71-1.87,1.32-3.84,2.5-5.83,3.66h0c-.15-.52-.76-.98-1.37-.92-1.31.15-1.32,1.72-.68,2.24-.98.73-1.51,1.27-3.42,2.37-1.55.89-2.34,1.14-3.21,1.45-.32-.15-.63-.02-.76.29-.53.23-1.16.52-2.01,1.02-2.84,1.64-2.58,2.08-5.43,3.72-2.84,1.64-3.01,1.35-5.85,3-2.84,1.64-2.77,1.76-5.62,3.38-2.84,1.64-2.92,1.51-5.75,3.16-2.84,1.64-2.59,2.06-5.43,3.71-2.01,1.16-4.05,2.34-6.14,3.29-2.11.97-4.3,1.84-6.48,2.59-2.19.76-4.54,1.06-6.78,1.61-2.26.55-4.5,1.24-6.78,1.56-2.29.32-4.64.39-6.95.5-2.32.11-4.66.42-6.96.31-2.3-.11-4.63-.56-6.91-.89s-4.53-.97-6.78-1.51c-2.24-.55-4.48-1.14-6.69-1.9-2.18-.76-4.32-1.66-6.43-2.63-2.1-.95-4.21-1.92-6.22-3.09-2.93-1.69-2.92-1.71-5.85-3.4s-3-1.55-5.93-3.24c-2.93-1.69-2.59-2.27-5.51-3.96-2.93-1.69-3.34-.97-6.27-2.66-2.93-1.69-2.56-2.32-5.5-4.01-2.93-1.69-3.05-1.48-5.96-3.17-2.93-1.69-2.92-1.71-5.83-3.4-2.93-1.69-3.19-1.24-6.11-2.93-2.93-1.69-2.61-2.26-5.53-3.93-1.98-1.14-4.22-1.84-6.12-3.09s-3.53-2.92-5.35-4.27-3.64-2.74-5.38-4.19c-1.74-1.47-3.22-3.21-4.88-4.77s-3.43-2.98-5-4.64c-1.56-1.66-3.06-3.37-4.53-5.11s-2.85-3.55-4.21-5.37-2.48-3.8-3.74-5.7-2.43-3.82-3.56-5.8c-1.14-1.97-2.84-3.64-3.85-5.67-1.02-2.03-1.58-4.29-2.48-6.38-.9-2.1-1.69-4.22-2.47-6.35-.77-2.14-1.66-4.24-2.32-6.41-.66-2.18-1.56-4.3-2.08-6.51-.53-2.21-.63-4.53-1.03-6.77s-.35-4.53-.63-6.8c-.26-2.26-.53-4.5-.68-6.77-.13-2.27-.73-4.53-.73-6.8s-.21-4.75-.05-7.11l.02.11ZM287.41,117.86c-.84.18-1.34.89-1.97,1.39l-.47-.98-1.27-1.1c1.08-.03,1.84-.77,2.55-1.51.1.85.63,1.58,1.16,2.21h0ZM66.36,189.88c-.63,0-1.22.24-1.72.61,0-.06-.03-.13-.03-.19-.18-.98-.32-1.98-.47-2.97l.48-.93c-.19,1.53.52,2.66,1.74,3.48ZM69.72,195.33c.05.42.31.9.53,1.27.13.21.44.32.4.58-.58.15-1.06.48-1.45.93l-1.22-1.5c.76-.18,1.26-.73,1.74-1.27v-.02ZM68.33,190.12c.69-.05,1.26-.42,1.8-.81l.87-1.27c.08,1.1.58,2.3,1.63,2.79.06.1-1.24.58-1.43.71-.21.15-.97,1.05-1.11.9-.16-1.06-.93-1.71-1.74-2.32h-.02ZM76.05,196.73l.98,1.45-1.5.87-.82-1.21,1.34-1.1v-.02ZM74.94,191.27c.84-.1,1.56-.58,2.1-1.22.15-.18.16-.47.34-.52.15.95.6,1.85,1.39,2.37-.9.34-1.53.76-2.19,1.45-.19-.93-.98-1.48-1.63-2.08ZM82.59,197.89c-.03.63.61.95.69,1.5l-1.1.69-.98-1.27,1.39-.93v.02ZM81.56,192.43c.61-.1,1.1-.45,1.56-.82l.76-1.05c-.05,1.06.61,1.84,1.27,2.55-.82.15-1.47.69-2.03,1.27l-.64-1.1-.92-.87v.02ZM87.81,200.03c.32-.11.63-.53.93-.69v1.68l-.18.11-.76-1.1ZM268.73,203.56c.19.89.9,1.39,1.51,1.97l-1.21.58-1.1,1.27c.03-1.1-.68-1.92-1.39-2.66.32-.02.64-.13.93-.29.27-.15,1.14-.95,1.27-.87h-.03ZM268.5,198.63l1.27-.76.69,1.1-1.27.98c0-.55-.44-.9-.69-1.34v.02ZM275.06,204.38c.44.89.92,1.85,1.92,2.21l-1.61.76-.93,1.1-.42-1.27-1.21-1.29c.87-.23,1.79-.69,2.26-1.51v.02ZM274.77,199.63c.4.11,1.35-.9,1.5-.81l.93,1.39c-.69.15-1.1.77-1.63,1.16-.06-.58-.45-1.11-.81-1.56v-.18ZM281.48,205.5c.1-.1.08-.11.24-.08l.53,1.27,1.32,1.18c-.77.02-1.45.47-2.01.93l-.76,1.14c-.13-.84-.29-1.55-.87-2.21-.13-.16-.89-.68-.76-.81,1.13,0,1.64-.73,2.3-1.43ZM281.03,200.66c.47.16,1.6-1.03,1.74-.93.15.69.77,1.1,1.16,1.63-.81.06-1.24.84-1.85,1.27-.05-.27-.15-.56-.29-.82-.1-.19-.82-1.08-.76-1.16v.02ZM285.44,208.09c.61-.02,1.11-.23,1.55-.53v.05c.18.97.47,1.9.77,2.85l-.58,1.11c.21-1.53-.56-2.63-1.74-3.48ZM66.25,275.7l-1.68,1.27-.87-1.61c.5-.11.87-.47,1.22-.81.15.13.29.26.45.37.02,0,.03.03.05.05.26.37.58.77.84.74l-.02-.02ZM55.32,288.3c-.24-.53-.69-.84-.92-1.35.84-.08,1.37-.73,1.92-1.27.47.71.77,1.6,1.68,1.85.05.32-.03.18-.18.23-1.06.42-1.56.66-2.26,1.63.03-.4-.1-.73-.24-1.08ZM49.89,285.09c.1.6.69.9,1.05,1.34l-.84.55c-.42-.44-.85-.87-1.27-1.29l1.08-.58-.02-.02ZM50.47,280.58l-.34-.85.74-.53.64.81-1.05.58ZM56.86,282.19c.13-.39-.77-1.39-.69-1.5l1.22-.81,1.1,1.39-1.63.93v-.02ZM58.13,275.25l-.47-.87.74-.52.64.81-.92.58ZM62.69,281.37c.53-.32.82-.81,1.35-1.02l.47.98,1.27,1.1c-1.1.05-1.87.74-2.55,1.51-.11-.92-.69-1.66-1.27-2.32.27,0,.5-.13.73-.26h0ZM55.32,294.23c-.42-.47-.81-.98-1.14-1.51l1.16-1.11c.06,1.03.97,2.18,1.97,2.43l-1.58.63c-.13-.15-.27-.27-.4-.42v-.02ZM323.88,228.95c-.16,2.37-.24,4.75-.55,7.09-.31,2.35-.73,4.71-1.18,7.01-.47,2.32-1,4.64-1.61,6.91-.61,2.29-1.32,4.56-2.08,6.8-.76,2.24-1.79,4.4-2.69,6.58s-2.53,4.03-3.58,6.14-1.42,4.59-2.59,6.64c-1.18,2.05-2.82,3.82-4.13,5.79s-2.87,3.74-4.3,5.61c-1.43,1.87-2.47,4.08-4.03,5.85-1.55,1.77-3.24,3.45-4.9,5.12-1.66,1.66-3.3,3.4-5.08,4.96-1.77,1.55-3.61,3.08-5.48,4.51-1.87,1.43-4.16,2.29-6.14,3.59-1.95,1.31-3.82,2.76-5.88,3.93-2.85,1.64-2.59,2.08-5.45,3.72s-2.88,1.58-5.74,3.22-2.93,1.48-5.79,3.13c-2.85,1.64-3.06,1.29-5.9,2.93-2.85,1.64-2.72,1.85-5.58,3.5s-3.08,1.24-5.93,2.88-2.39,2.47-5.22,4.11c-2.05,1.18-4.16,2.29-6.25,3.32-2.11,1.05-4.3,1.97-6.48,2.87s-4.66.98-6.88,1.72c-2.22.76-4.45,1.48-6.7,2.08-2.27.61-4.4,1.85-6.7,2.3-2.3.45-4.66.87-6.98,1.18-2.34.31-4.71.4-7.06.55s-4.71.29-7.06.29-4.71-.39-7.04-.53c-2.34-.15-4.71-.26-7.03-.56s-4.59-1.03-6.9-1.48-4.66-.71-6.93-1.32c-2.27-.6-4.64-.92-6.88-1.68-2.22-.76-4.09-2.45-6.27-3.35-2.16-.9-4.51-1.39-6.62-2.42-2.1-1.03-4.24-2.03-6.29-3.21-2.87-1.66-2.53-2.22-5.4-3.88s-3.27-.93-6.14-2.59-2.69-1.97-5.56-3.61c-2.5-1.43-2.77-1.71-4.69-2.85.16-.18.32-.42.35-.55.29-1.29-.58-2.16-1.87-1.87-.4.1-.77.53-.89,1-1.51-.97-1.89-1.39-4.16-2.71-2.87-1.66-3.05-1.34-5.91-3-.27-.16-.52-.31-.74-.44.03,0,.05,0,.08.02,3.64.42,3.46-5.06-.21-4.38-1.56.29-2,2.29-1.24,3.48-.79-.55-1.32-.98-2.43-1.69.56-1.79-.74-3.42-2.82-3.06-.29.05-.92.44-1.26.81-.98-.53-1.97-1.06-2.9-1.69-1.76-1.18-3.56-2.29-5.25-3.55,1.92-1.95.44-5.12-2.43-4.63-.53.1-1.21.5-1.56,1-.45-.45-.92-.89-1.4-1.31-.71-.61-1.47-1.18-2.24-1.72.31.05.63.06.98.03,3.85-.42,3.26-6.58-.89-5.98-2.3.32-2.97,2.72-2.16,4.38-.37-.31-.73-.61-1.05-.93l-.02-.02c.76-1.24.52-2.79-.45-3.87l-1.05-.76c1.06-.05,1.95-.58,2.59-1.4l.53-.92c-.23,3.38,4.59,4.53,5.98,1.5,1.55-3.37-2.72-6.14-5.22-3.48l-.63,1.05c.06-1.35-.73-2.34-1.74-3.13.69-.03,1.61-.48,2.1-.98.24-.24.32-.58.58-.76.93,4.21,7.07,3.26,6.48-1.21-.15-1.05-.93-1.8-1.72-2.39.98-.05,1.76-.56,2.39-1.27.19-.23.29-.55.52-.69.42,3.17,4.06,3.61,5.71,1.84,0,0,.03.02.03.03,1.85,1.21,3.95,2.01,5.88,3.13.82.48,1.39.85,1.85,1.18-1.1.76-1.43,2.55-.66,3.69,1.37,2,4.35.93,4.72-.92.64.37,1.14.68,1.55.93.06.27.15.53.18.61.45,1.13,1.82,1.72,2.9,1.32.26.15.53.31.84.48,2.34,1.35,2.77,1.69,4.34,2.63-.21-.05-.45-.06-.69-.05-3,.23-2.66,4.67.19,4.61,2.26-.06,2.71-2.64,1.6-3.92.11.06.24.15.37.21,1.37.79,2.16,1.08,2.93,1.32-1.77,2.72,2.56,4.79,3.48,1.56,2.71,1.58,2.68,1.8,5.53,3.45,2.93,1.69,2.74,2.01,5.67,3.69,2.93,1.69,3.19,1.22,6.12,2.92s2.64,2.19,5.56,3.88c2.93,1.69,3.3,1.05,6.22,2.74,2.1,1.21,3.8,3.11,5.98,4.13,2.19,1.02,4.71,1.22,6.96,2.05,2.27.82,4.45,1.82,6.77,2.45,2.32.61,4.75.69,7.11,1.11,2.37.42,4.66,1.32,7.06,1.53,2.4.21,4.8-.16,7.2-.16s4.8.15,7.19-.06c2.39-.21,4.83-.1,7.2-.52,2.37-.42,4.72-1.02,7.04-1.64,2.32-.61,4.61-1.4,6.87-2.22,2.26-.82,4.32-2.1,6.51-3.13,2.18-1.02,4.63-1.53,6.7-2.74,2.84-1.64,2.66-1.97,5.5-3.61,2.84-1.64,3-1.39,5.83-3.01,2.84-1.64,2.61-2.03,5.45-3.67,2.84-1.64,2.84-1.66,5.67-3.3,2.84-1.64,3-1.39,5.83-3.01,2.84-1.64,2.51-2.21,5.37-3.85,2.84-1.64,3.09-1.21,5.93-2.85,2.1-1.21,3.98-2.69,5.95-4.06,1.98-1.39,4.32-2.3,6.14-3.85,1.84-1.55,3.06-3.79,4.75-5.48,1.71-1.71,3.43-3.35,4.96-5.19,1.55-1.84,2.87-3.84,4.24-5.8s2.63-4,3.84-6.08c1.21-2.08,2.34-4.16,3.37-6.35,1.02-2.18,2-4.35,2.82-6.61.82-2.26,1.84-4.45,2.47-6.77s1.24-4.66,1.66-7.03c.42-2.35.19-4.8.4-7.2.21-2.39.74-4.75.74-7.17s-.45-4.58-.61-6.85c-.18-2.29.27-4.66-.06-6.91-.34-2.27-.79-4.54-1.31-6.78-.52-2.24-1.24-4.45-1.92-6.62-.68-2.19-1.26-4.45-2.1-6.58s-2.39-3.96-3.38-6.03c-1-2.06-1.61-4.34-2.77-6.32-1.14-1.98-2.88-3.59-4.17-5.5-1.29-1.89-2.29-4-3.72-5.79-1.42-1.79-3.34-3.16-4.88-4.85-1.55-1.68-2.97-3.48-4.64-5.04-1.68-1.56-3.06-3.46-4.85-4.9-1.79-1.42-3.82-2.55-5.72-3.85-1.89-1.29-3.63-2.87-5.62-4.01-3.24-1.87-3.71-1.06-6.95-2.93-3.24-1.87-3-2.3-6.24-4.17-2.84-1.63-3.05-1.27-5.88-2.9s-2.85-1.6-5.69-3.24c-2.84-1.63-2.37-2.43-5.21-4.06-2.84-1.64-3.22-.97-6.06-2.59-2.84-1.63-2.45-2.3-5.27-3.95-2.84-1.64-3-1.34-5.83-2.98-2.84-1.64-2.69-1.89-5.53-3.51-2.08-1.19-4.4-1.92-6.61-2.79-2.22-.87-4.48-1.69-6.78-2.21-2.32-.53-4.71-.87-7.07-1.05s-4.74.34-7.11.52-4.77.03-7.11.56c-2.3.52-4.64,1.14-6.85,2.01-2.19.85-4.14,2.3-6.22,3.51-2.84,1.63-3.14,1.1-5.98,2.72s-2.58,2.08-5.4,3.72c-2.84,1.63-3,1.35-5.83,2.98-2.84,1.64-2.77,1.74-5.61,3.38-2.84,1.63-2.9,1.51-5.74,3.14-2.84,1.64-2.59,2.06-5.41,3.71s-2.77,1.74-5.61,3.37c-2.08,1.19-4,2.51-5.83,3.98-1.87,1.48-3.84,2.82-5.43,4.56-1.61,1.74-3.21,3.53-4.54,5.5-.24.37-.48.74-.73,1.11-.4-.73-1.34-1.21-2.18-1.16-2.97.16-2.98,4.59,0,4.82-.24.47-.48.93-.73,1.4h0c-2.71-.19-4.06,3.03-1.95,4.8-.18.53-.35,1.08-.53,1.63h0c-1.98.68-2.58,3.34-1.02,4.8l.03-.11c-.08.55-.16,1.1-.24,1.64-2.14.81-2.43,3.77-.71,5.14-.03.4-.06.79-.1,1.19-2.98.74-2.98,5.11,0,5.85v.37c-2.84-.32-4.72,3.17-2.68,5.4.37.42.85.53,1.22.92-1.26-.1-2.53.69-3.01,1.85l-.52-1.29c-.42-.69-1.06-1.39-1.92-1.5-.03-.16.13-.13.26-.15.84-.21,1.18-.18,1.9-.77,3.21-2.68-.73-7.45-3.95-4.98-1.77,1.35-1.69,3.84.06,5.14l.92.53c-.92-.08-2.01.32-2.66.98-.21.21-.55,1.08-.69.58-.44-1.47-1.16-2.45-2.79-2.61-.03-.19.16-.11.29-.11.89-.05,1.35.02,2.14-.53,2.14-1.5,1.51-5.16-1.03-5.69-3.46-.71-5.38,3.32-2.79,5.58l1.16.63c-1.56-.02-2.77.84-3.42,2.21-.08-3.03-3.59-4.35-5.74-2.26l-.81,1.45c.1-1.02-.26-1.95-.93-2.63,0-.08-.02-.18-.03-.26-.03-.29-.05-.6-.06-.89,2.82-1.05,2.74-5.06-.23-5.95v-.42c4.3.19,4.53-5.85.47-6.11.02-.19.03-.39.06-.58,2.13.68,4.35-1.1,3.95-3.48-.24-1.37-1.72-2.5-3.13-2.43.05-.24.08-.48.13-.73.81.24,1.97.15,2.47-.1,3.08-1.45,1.37-6.12-1.79-5.54.05-.35.13-.71.21-1.05.98.74,2.68.35,3.46-.58,1.39-1.64.48-4.13-1.43-4.56.18-.39.35-.77.53-1.18,2.21-.13,3.35-2.66,1.9-4.3.44-.89.87-1.77,1.32-2.66,1.06-2.06,2.06-4.14,3.32-6.09.08-.11.15-.24.23-.35.56.95,2.05,1.53,3.19.81,1.9-1.22.84-4.08-1.21-4.05.48-.77,1-1.55,1.56-2.26h0c.74-.21,1.29-.87,1.43-1.63,1.1-1.14,2.29-2.22,3.38-3.38.35-.37.71-.71,1.08-1.05.16.16.34.31.45.37,1.77.87,3.09-1.31,2.16-2.53.53-.42,1.05-.85,1.56-1.29,1.1-.95,2.19-1.87,3.32-2.77.06.48.34.92.81,1.06,2.1.64,2.59-1.98,1.26-2.63,1.87-1.34,3.53-3.03,5.54-4.19.02,0,.03-.02.05-.03-.19.93,1.14,2.03,2.14,1.11.74-.69.31-1.92-.42-2.16,1.21-.79,1.71-1.26,3.77-2.45,1.42-.82,2.14-1.21,2.87-1.6h0c-.21.69,1.51.79,1.13-.34-.05-.11-.1-.16-.18-.18.5-.27,1.08-.6,1.92-1.08,2.84-1.64,3.14-1.13,5.98-2.77s2.61-2.05,5.45-3.69c1.89-1.1,3.79-2.19,5.69-3.27,2.84-1.64,3.08-1.24,5.91-2.88s2.74-1.8,5.59-3.45c2.01-1.16,3.98-2.43,6.08-3.38,2.11-.97,4.27-1.89,6.45-2.63,2.19-.76,4.53-1.03,6.78-1.58s4.53-.92,6.82-1.24c2.29-.32,4.58-.71,6.88-.82,2.32-.11,4.61.23,6.93.34,2.3.11,4.67-.27,6.96.06,2.29.32,4.45,1.35,6.69,1.9s4.58.76,6.77,1.51c2.18.76,4.25,1.79,6.38,2.76,2.1.95,4.19,1.93,6.2,3.09,2.93,1.69,3.14,1.32,6.06,3.01,2.93,1.69,2.5,2.43,5.41,4.13,2.93,1.69,3.16,1.27,6.09,2.97,2.93,1.69,2.93,1.68,5.87,3.37,2.93,1.69,2.85,1.8,5.79,3.5,2.93,1.69,2.82,1.87,5.75,3.56s3.29,1.06,6.22,2.76,2.84,1.87,5.75,3.55c2.93,1.69,2.63,2.22,5.54,3.92,1.98,1.14,3.95,2.24,5.85,3.5,1.9,1.26,4,2.21,5.83,3.58,1.82,1.35,3.51,2.9,5.25,4.37,1.74,1.47,3.67,2.72,5.33,4.29s2.88,3.55,4.45,5.21c1.56,1.66,2.93,3.46,4.4,5.21,1.47,1.74,3.01,3.4,4.38,5.22,1.35,1.82,2.66,3.67,3.92,5.58s2.27,3.93,3.4,5.9c1.14,1.97,2.76,3.67,3.79,5.71,1.02,2.03,1.79,4.19,2.69,6.29s1.32,4.37,2.1,6.49c.77,2.14,2.4,4,3.05,6.17.66,2.18.9,4.48,1.43,6.7.53,2.21,1.21,4.42,1.6,6.66.4,2.24.44,4.54.71,6.8.26,2.26.24,4.54.37,6.82s.5,4.53.5,6.82.1,4.75-.06,7.09l-.06-.05Z"/>
          </g>
          <g class="st3">
            <path class="st2" d="M190.44,207.37c0,15.73-7.17,22.37-14.02,22.37-7.96,0-13.96-8.15-13.96-22.5,0-13.25,5.87-22.24,13.96-22.24s14.02,8.09,14.02,22.37ZM176.47,221.98c3,0,4.69-4.96,4.69-14.62s-1.76-14.62-4.75-14.62-4.69,4.9-4.69,14.62,1.63,14.62,4.75,14.62Z"/>
          </g>
          <g class="st3">
            <path class="st2" d="M145.44,156.73l-.34,9.33-7.36,1.05-2.51,32.36-8.19.64.95-31.64-7.43,1.05.58-8.32,24.3-4.48h0Z"/>
          </g>
          <g class="st3">
            <path class="st2" d="M231.49,161.85l.48,7.51-10.27-1.5.66,8.48,9.28,1.19.47,7.53-9.15-1.05,1.31,16.57-8.69-.71-4.54-41.8,20.45,3.77v.02Z"/>
          </g>
        </g>
      </g>
    </g>
  </g>
  <g id="Logo-front">
    <g id="Logo-front1" data-name="Logo-front">
      <path class="st6" d="M114.89,258.89l39.66,22.9c13.25,7.64,29.56,7.64,42.79,0l39.66-22.9c13.25-7.64,21.4-21.77,21.4-37.07v-45.8c0-15.29-8.15-29.41-21.4-37.07l-39.66-22.9c-13.25-7.64-29.56-7.64-42.79,0l-39.66,22.9c-13.25,7.64-21.4,21.77-21.4,37.07v45.8c0,15.29,8.15,29.41,21.4,37.07Z"/>
      <g>
        <path class="st2" d="M189.05,207.32c0,15.08-6.88,21.47-13.46,21.47-7.64,0-13.39-7.82-13.39-21.58,0-12.7,5.62-21.34,13.39-21.34s13.46,7.75,13.46,21.47v-.02ZM175.66,221.34c2.88,0,4.51-4.75,4.51-14.02s-1.69-14.02-4.56-14.02-4.51,4.69-4.51,14.02,1.56,14.02,4.56,14.02Z"/>
        <path class="st2" d="M145.9,158.76l-.32,8.94-7.07,1-2.42,31.04-7.85.61.92-30.33-7.12,1.02.56-7.98s23.3-4.3,23.3-4.3Z"/>
        <path class="st2" d="M228.44,163.68l.47,7.2-9.85-1.45.64,8.14,8.9,1.14.45,7.22-8.78-1,1.24,15.89-8.33-.68-4.37-40.1,19.61,3.63h.02Z"/>
        <path class="st2" d="M235.92,137.94c-2.11-1.22-1.8-1.76-3.92-2.98s-2.16-1.14-4.27-2.37-2.21-1.05-4.34-2.26c-2.11-1.22-2.14-1.16-4.25-2.39s-2.34-.84-4.45-2.06-1.69-1.95-3.82-3.16-2.26-.98-4.37-2.21-2.08-1.27-4.19-2.5-2.3-.89-4.42-2.11c-1.39-.81-2.55-2.06-4-2.71s-3.26-.44-4.77-.92-2.87-1.61-4.43-1.93-3.21-.24-4.79-.42-3.17-.63-4.77-.63-3.24-.02-4.82.15-3.03,1.22-4.59,1.56-3.16.44-4.67.93-2.88,1.29-4.35,1.93-2.82,1.39-4.21,2.18c-2.11,1.22-2.13,1.21-4.24,2.43s-2.26.97-4.38,2.18-2.26.95-4.38,2.18c-2.13,1.22-1.85,1.68-3.96,2.88s-2.27.93-4.38,2.16-2.05,1.34-4.16,2.56-2.39.76-4.5,1.98-2.06,1.31-4.19,2.51-2.08,1.29-4.19,2.5c-1.39.81-2.61,1.87-3.9,2.8s-2.22,2.3-3.4,3.37-2.64,1.85-3.71,3.03-1.79,2.64-2.72,3.93-1.9,2.55-2.69,3.92-1.98,2.58-2.63,4.03-1.11,3.01-1.61,4.53-.89,3.08-1.22,4.64-.44,3.16-.6,4.75-.48,3.17-.48,4.77c0,2.43.69,2.43.69,4.88s-.02,2.43-.02,4.88-.69,2.43-.69,4.88.19,2.43.19,4.88.4,2.43.4,4.88-.73,2.43-.73,4.88.81,2.43.81,4.88-.6,2.45-.6,4.88-.1,2.45-.1,4.88c0,1.61.77,3.16.93,4.74.16,1.58.35,3.14.69,4.69s.23,3.24.73,4.75.89,3.11,1.55,4.56,1.79,2.69,2.58,4.08,1.51,2.82,2.45,4.11,2.05,2.45,3.11,3.64,2.11,2.4,3.3,3.46,2.29,2.27,3.58,3.21,2.72,1.71,4.11,2.5c2.11,1.22,2.08,1.29,4.19,2.51s2.19,1.08,4.3,2.3,2.16,1.14,4.27,2.35,2.3.89,4.42,2.1,1.92,1.55,4.03,2.77,2.37.79,4.48,2.01,1.93,1.53,4.05,2.76,1.9,1.58,4.01,2.8,2.22,1.05,4.34,2.26c1.39.81,2.84,1.5,4.29,2.14s3.06.9,4.58,1.39,3.03.97,4.58,1.29,3.06,1.19,4.64,1.35c1.58.16,3.22-.32,4.82-.32s3.19.06,4.77-.11,3.24-.05,4.8-.39,2.9-1.45,4.43-1.95,2.93-1.1,4.4-1.76,3-1.05,4.38-1.85c2.11-1.22,1.98-1.45,4.09-2.68s2.08-1.27,4.19-2.5,2.47-.61,4.58-1.82,1.85-1.66,3.96-2.88,2.37-.77,4.48-2,1.79-1.77,3.92-3,2.43-.66,4.54-1.87,2.18-1.11,4.29-2.34,1.69-1.95,3.82-3.16c1.39-.81,2.72-1.61,4-2.55s2.59-1.82,3.77-2.88,2.43-2.06,3.5-3.24,1.89-2.56,2.82-3.85,2.08-2.45,2.87-3.82,1.55-2.79,2.19-4.25,1.5-2.87,2-4.38.34-3.21.66-4.77,1-3.06,1.16-4.66.45-3.19.45-4.79c0-2.43-.35-2.43-.35-4.88s-.03-2.43-.03-4.88.1-2.43.1-4.88.26-2.43.26-4.88.06-2.43.06-4.88-.52-2.43-.52-4.88-.24-2.43-.24-4.88-.13-2.45-.13-4.88.77-2.45.77-4.88c0-1.61-.18-3.22-.34-4.8s-.64-3.14-.97-4.71-1-3.03-1.48-4.54-.74-3.13-1.39-4.58-1.27-2.95-2.08-4.32-1.84-2.63-2.77-3.92-2.19-2.3-3.26-3.5-2.05-2.42-3.24-3.48-2.3-2.21-3.59-3.14-2.77-1.55-4.16-2.35l.06.1ZM249.89,184.32c0,2.3-.63,2.3-.63,4.61s.1,2.3.1,4.61.21,2.3.21,4.61.06,2.3.06,4.61.44,2.3.44,4.61-.84,2.3-.84,4.61.27,2.3.27,4.61-.06,2.3-.06,4.61c0,1.71.26,3.43.02,5.11s-1.18,3.21-1.66,4.83-.27,3.53-.97,5.08c-.48,1.08-1.97,1.29-3.14,1.29-2.24,0-2.24.34-4.46.34s-2.24-.37-4.46-.37-2.24-.11-4.46-.11-3.95-1.84-3.17-3.82c.89-2.27,1.16-2.16,2.05-4.42s.66-2.35,1.55-4.63.85-2.27,1.74-4.54.9-2.26,1.79-4.53,1.16-2.16,2.05-4.42,1.16-2.16,2.05-4.42c.89-2.27.4-2.45,1.29-4.72s1.19-2.14,2.08-4.42.76-2.32,1.64-4.58,1.39-2.08,2.27-4.34.81-2.3,1.69-4.56c1.48-3.79,2.61-3.69,2.61.37l-.03-.03ZM106.65,238.08c-1.18,0-1.95-1.1-2.43-2.18-.69-1.55-1.35-3.08-1.82-4.71s-1.03-3.22-1.27-4.92-.42-3.37-.42-5.08c0-2.3-.44-2.3-.44-4.61s.84-2.3.84-4.61-.27-2.3-.27-4.61.06-2.3.06-4.61-.39-2.3-.39-4.61.6-2.3.6-4.61-.85-2.3-.85-4.61.73-2.3.73-4.61c0-4.06.95-4.3,2.42-.52.89,2.27.53,2.4,1.42,4.67s.79,2.3,1.68,4.58,1.66,1.97,2.55,4.22.6,2.37,1.48,4.64,1.11,2.18,2,4.45.92,2.26,1.8,4.51.87,2.27,1.76,4.54.61,2.37,1.48,4.64.6,2.37,1.48,4.64,1.37,2.08,2.26,4.35.58,2.39,1.47,4.66c.77,1.98-.63,4.17-2.76,4.17-2.24,0-2.24-.53-4.46-.53s-2.26,0-4.48.1-2.22.64-4.46.64l.05-.03ZM107.65,157.31c2.26-.42,2.37.19,4.63-.21s2.24-.5,4.5-.92,2.22-.61,4.48-1.03,2.26-.48,4.51-.89,2.18-.84,4.45-1.26,2.42.4,4.67,0,2.21-.68,4.46-1.1,2.27-.35,4.53-.76,2.19-.79,4.45-1.21,2.37.18,4.63-.24,2.11-1.26,4.37-1.68,2.4.31,4.66-.11c2.37-.44,4.25,1.68,3.3,3.88-.97,2.24-1.31,2.1-2.27,4.34s-1.06,2.19-2.03,4.43-.21,2.56-1.16,4.8-1.24,2.13-2.21,4.37-.74,2.34-1.71,4.58-.93,2.26-1.9,4.5-.98,2.24-1.95,4.48-1.24,2.13-2.21,4.37-1.24,2.13-2.21,4.37-.48,2.45-1.45,4.69-1.26,2.11-2.22,4.35-.84,2.29-1.8,4.53-1.45,2.03-2.42,4.27-.89,2.27-1.85,4.51-.9,2.27-1.87,4.51-.76,2.34-1.72,4.58c-1.06,2.48-4.92,2.59-5.9.08-.85-2.18-.4-2.35-1.26-4.53s-1.19-2.05-2.03-4.22-.74-2.22-1.58-4.4-.37-2.37-1.22-4.54-.97-2.13-1.82-4.3-.87-2.16-1.72-4.34-1-2.13-1.84-4.3-.63-2.26-1.48-4.43-1.5-1.92-2.35-4.09-.84-2.18-1.68-4.35-.21-2.43-1.06-4.61-1.02-2.11-1.87-4.29-1.22-2.03-2.08-4.21-.18-2.43-1.03-4.63c-.32-.84-1-1.8-.58-2.59.16-.27.84-.27,1-.55.44-.76.98-1.66,1.85-1.82l.02-.03ZM188.46,147.32c2.26.42,2.14,1.03,4.4,1.45s2.27.32,4.53.74,2.3.21,4.56.63,2.27.35,4.53.77,2.34,0,4.59.4,2.11,1.24,4.37,1.66,2.3.15,4.56.56,2.24.48,4.51.9,2.34.05,4.59.45,2.14,1,4.42,1.42,2.42-.42,4.67,0,2.13,1.13,4.38,1.55c.87.16,1.71.39,2.16,1.14.16.27,0,.74.15,1.02.44.79.37,1.39.03,2.22-.85,2.18-.08,2.48-.93,4.66s-1.13,2.06-1.98,4.24-.61,2.27-1.47,4.45-.82,2.19-1.68,4.37-.87,2.18-1.71,4.35-1.13,2.06-1.98,4.24-1.13,2.06-1.98,4.24-.35,2.37-1.21,4.54-1.16,2.06-2,4.24-.73,2.22-1.58,4.4-1.35,1.98-2.19,4.16-.76,2.21-1.61,4.38-.79,2.21-1.63,4.38-.64,2.26-1.48,4.43c-.98,2.51-4.83,2.76-5.9.27-.98-2.3-.55-2.48-1.55-4.79s-1.32-2.16-2.32-4.46-.87-2.35-1.87-4.66-.52-2.5-1.51-4.8-1.11-2.26-2.1-4.56-.97-2.21-1.93-4.42-1.1-2.16-2.05-4.37-.73-2.3-1.69-4.51-1.6-1.93-2.55-4.14-.93-2.22-1.89-4.43-.32-2.48-1.27-4.69-1.13-2.14-2.08-4.35-1.32-2.05-2.27-4.27-.29-2.5-1.24-4.71-1.71-1.89-2.66-4.11-.4-2.45-1.35-4.66c-.95-2.22.82-4.8,3.19-4.35h.02ZM172.15,158.49c1.05-2.43,4.43-2.19,5.48.24.95,2.22,1.03,2.18,2,4.4s1.14,2.14,2.1,4.35,1.02,2.19,1.97,4.42,1.35,2.05,2.3,4.27.19,2.55,1.14,4.77,1.19,2.1,2.14,4.29.89,2.22,1.84,4.43,1.29,2.05,2.24,4.25.4,2.43,1.34,4.64,1.72,1.87,2.68,4.06.27,2.48,1.22,4.69,1.26,2.06,2.21,4.27.6,2.35,1.55,4.54.85,2.24,1.79,4.45,1.71,1.87,2.66,4.08.66,2.32,1.61,4.53,1.18,2.1,2.13,4.3c.85,2-.9,4.71-3.08,4.71-2.3,0-2.3-.02-4.61-.02s-2.3-.31-4.61-.31-2.3-.31-4.61-.31-2.3.52-4.61.52-2.3-.32-4.61-.32-2.3.13-4.61.13-2.3-.53-4.61-.53-2.3.1-4.61.1-2.3.08-4.61.08-2.3.23-4.61.23-2.3.48-4.61.48-2.3-.47-4.61-.47-2.3.35-4.61.35-2.3-.13-4.61-.13c-2.18,0-3.32-2.26-2.47-4.25.95-2.21.84-2.26,1.79-4.46s.92-2.21,1.87-4.42.81-2.27,1.76-4.46,1.16-2.11,2.11-4.32.31-2.48,1.26-4.69.97-2.19,1.92-4.4,1.58-1.93,2.53-4.14.77-2.27,1.72-4.48.58-2.37,1.53-4.58,1.61-1.92,2.56-4.13.19-2.53,1.14-4.74,1.5-1.97,2.45-4.17,1.03-2.18,1.98-4.37.32-2.48,1.27-4.67,1-2.19,1.95-4.38,1.53-1.97,2.4-4.21c.87-2.24.52-2.39,1.47-4.59l-.03-.03ZM227.76,145.69c-2.27-.42-2.16-1.03-4.45-1.45s-2.29-.34-4.58-.76-2.32-.23-4.59-.64-2.29-.35-4.56-.77-2.35,0-4.63-.42-2.13-1.24-4.4-1.66-2.32-.16-4.61-.58-2.27-.48-4.54-.9-2.35-.05-4.63-.47-2.18-1.02-4.45-1.43c-1.43-.26-2.98-1.11-2.98-2.56,0-2.8.73-2.8.73-5.62s-.34-2.8-.34-5.62c0-1.93,1.77-3.06,3.66-2.63,1.72.4,3.34,1.02,5,1.68s3.59.68,5.16,1.56c2.06,1.19,1.92,1.45,3.98,2.64s2.19.98,4.25,2.18,2.08,1.16,4.14,2.35,2.06,1.21,4.13,2.4,1.92,1.45,3.98,2.64,1.92,1.45,3.98,2.64,2.34.74,4.4,1.93,1.9,1.48,3.98,2.68c.97.55.92.39,1.98,1,.76.45.24,1.95-.63,1.79l.02.03ZM156.82,123.53c1.55-.9,3.42-1.1,5.06-1.74s3.29-1.26,5.01-1.66c1.89-.44,3.58.76,3.58,2.69,0,2.8.06,2.8.06,5.62s.44,2.8.44,5.62c0,1.45-1.55,2.32-2.98,2.58-2.27.42-2.22.69-4.51,1.11s-2.29.35-4.56.77-2.21.79-4.48,1.21-2.39-.18-4.66.26-2.13,1.26-4.4,1.68-2.42-.31-4.69.13-2.22.76-4.5,1.18-2.35.05-4.63.47-2.3.31-4.58.74-2.13,1.24-4.4,1.66c-.87.16-1.42-1.47-.64-1.9.73-.42.5-.58,1.13-.93,2.11-1.22,2.1-1.24,4.21-2.47s2.11-1.21,4.22-2.42,2.26-.95,4.37-2.18,2.26-.95,4.37-2.18,1.85-1.68,3.96-2.88,2.27-.93,4.38-2.16,2.1-1.26,4.16-2.55,2.01-1.39,4.13-2.61l-.05-.05ZM118.79,252.96c-1.24-.71-2.06-2.01-3.19-2.85-1.42-1.06-.85-2.77.92-2.77,2.88,0,2.88-.21,5.79-.21s2.88-.06,5.79-.06c.77,0,1.82.02,2.34.58,1.68,1.77,1.06,2.35,2.74,4.13s1.87,1.6,3.53,3.37,1.61,1.82,3.29,3.59,1.95,1.51,3.63,3.29,1.24,2.19,2.9,3.96c1.1,1.16-.24,3.05-1.63,2.24-2.18-1.26-1.82-1.89-4-3.14s-2.35-.97-4.53-2.22-2-1.58-4.17-2.84-2.13-1.35-4.3-2.61-2.55-.61-4.77-1.79-2.14-1.35-4.32-2.63v-.03ZM171.47,278.76c-1.55-1.64-1.1-2.08-2.64-3.74s-1.63-1.6-3.17-3.24-1.71-1.51-3.26-3.16-1.6-1.61-3.16-3.26-1.87-1.35-3.42-3-.95-2.22-2.5-3.87-1.76-1.47-3.3-3.13-1.5-1.71-3.06-3.35c-1.82-1.93-.6-5.14,2.06-5.14,2.39,0,2.39.6,4.75.6s2.39-.85,4.75-.85,2.39.73,4.75.73,2.39-.34,4.75-.34,2.39.37,4.75.37,2.39.11,4.75.11,2.39-.82,4.75-.82,2.39.31,4.75.31,2.39-.24,4.75-.24,2.39-.03,4.77-.03,2.39.02,4.77.02c2.64,0,4.05,3.55,2.24,5.46-1.55,1.64-1.77,1.45-3.34,3.09s-1.18,2.01-2.72,3.66-1.79,1.43-3.35,3.08-1.45,1.74-3.01,3.4-1.95,1.29-3.5,2.93-1.48,1.71-3.05,3.37-1.5,1.71-3.06,3.35-1.39,1.8-2.95,3.46c-.55.58-1.24,1.37-2.05,1.4-.93.03-1.87-.44-2.8-.47-.81-.03-1.76-.11-2.32-.69l.03-.02ZM231.55,252.96c-2.18,1.26-2.5.71-4.67,1.97s-2.13,1.34-4.32,2.59-2.08,1.43-4.25,2.69-2.14,1.31-4.34,2.56-1.97,1.64-4.14,2.9-2.59.53-4.79,1.8c-1.39.81-2.51-.56-1.42-1.72,1.68-1.77,1.72-1.72,3.38-3.5s1.39-2.03,3.06-3.8,2.11-1.37,3.77-3.14,1.05-2.35,2.72-4.13,2.21-1.27,3.87-3.05c.53-.56,1.05-1.11,1.8-1.11,2.88,0,2.88.37,5.79.39s2.88.11,5.79.11c1.77,0,2.77,2.13,1.35,3.19-1.13.84-2.4,1.55-3.64,2.27l.03-.03Z"/>
      </g>
    </g>
  </g>
</svg>