<?xml version="1.0" encoding="UTF-8"?>
<svg xmlns="http://www.w3.org/2000/svg" version="1.1" xmlns:xlink="http://www.w3.org/1999/xlink" viewBox="0 0 262 422">
  <!-- Generator: Adobe Illustrator 29.1.0, SVG Export Plug-In . SVG Version: 2.1.0 Build 142)  -->
  <defs>
    <style>
      .st0 {
        fill: #580acd;
      }

      .st1 {
        fill: #180f1e;
      }

      .st2 {
        fill: url(#Degradado_sin_nombre_7);
      }

      .st3 {
        display: none;
      }

      .st4 {
        fill: #f05e37;
      }

      .st5 {
        fill: #edb680;
      }

      .st6 {
        fill: url(#Degradado_sin_nombre_57);
      }
    </style>
    <linearGradient id="Degradado_sin_nombre_57" data-name="Degradado sin nombre 57" x1="197.19" y1="180.75" x2="80.59" y2="34.71" gradientUnits="userSpaceOnUse">
      <stop offset=".11" stop-color="#580acd"/>
      <stop offset=".9" stop-color="#f05e37"/>
    </linearGradient>
    <linearGradient id="Degradado_sin_nombre_7" data-name="Degradado sin nombre 7" x1="184.27" y1="191.07" x2="67.67" y2="45.02" gradientUnits="userSpaceOnUse">
      <stop offset=".12" stop-color="#f05e37"/>
      <stop offset=".91" stop-color="#580acd"/>
    </linearGradient>
  </defs>
  <g id="Logo-bg">
    <g>
      <path class="st6" d="M225.1,90.33c-2.18-22.21-15.01-42.12-34.3-53.26l-24.89-14.37c-10.48-6.05-22.46-9.25-34.63-9.25s-24.15,3.2-34.63,9.25l-24.74,14.28c-21.44,12.38-34.77,35.45-34.78,60.22,0,13.18,3.49,26.18,10.08,37.6,6.6,11.43,16.12,20.95,27.55,27.55l32.69,18.87c7.35,4.24,15.59,6.37,23.84,6.37s16.49-2.12,23.84-6.37l24.69-14.25c14.7-8.49,23.84-24.31,23.84-41.29,0-14.12-5.77-27.96-15.83-37.96-1.06-1.05-2.64-1.27-3.94-.53-1.3.73-1.94,2.2-1.59,3.65.51,2.09.77,4.23.77,6.37v28.42c0,9.67-5.2,18.68-13.58,23.52l-24.61,14.21c-4.11,2.37-8.8,3.63-13.58,3.63s-9.47-1.25-13.58-3.63l-32.66-18.85c-16.86-9.73-27.33-27.87-27.33-47.34,0-17.41,9.36-33.62,24.44-42.33l24.69-14.25c15.07-8.7,33.8-8.7,48.88,0l32.69,18.87c11.61,6.7,21.29,16.38,27.99,27.99.87,1.51,1.7,3.06,2.47,4.63.71,1.46,2.31,2.17,3.87,1.73,1.56-.44,2.54-1.88,2.38-3.49Z"/>
      <path class="st2" d="M215.35,88.06c-6.6-11.43-16.12-20.95-27.55-27.55l-32.69-18.87c-14.7-8.49-32.97-8.49-47.68,0l-24.69,14.25c-14.7,8.49-23.84,24.31-23.84,41.29,0,14.12,5.77,27.96,15.84,37.96,1.06,1.05,2.64,1.26,3.94.53,1.3-.73,1.94-2.2,1.59-3.65-.51-2.09-.77-4.23-.77-6.37v-28.42c0-9.67,5.2-18.68,13.58-23.52l24.61-14.21c8.37-4.84,18.78-4.84,27.15,0l32.66,18.85c16.86,9.73,27.33,27.87,27.33,47.34,0,17.41-9.36,33.62-24.44,42.33l-24.69,14.25c-7.39,4.27-15.84,6.53-24.44,6.53s-17.04-2.26-24.44-6.53l-32.69-18.87c-11.61-6.7-21.29-16.38-27.99-27.99-.87-1.51-1.7-3.07-2.47-4.63-.71-1.46-2.31-2.17-3.87-1.73-1.56.44-2.54,1.88-2.38,3.49,2.18,22.21,15.01,42.12,34.3,53.26l24.89,14.37c10.68,6.17,22.66,9.25,34.63,9.25s23.95-3.08,34.63-9.25l24.74-14.28c21.44-12.38,34.77-35.45,34.78-60.22,0-13.18-3.49-26.18-10.08-37.6Z"/>
      <g>
        <g>
          <path class="st1" d="M67.18,167.92c2.52-.03,2.46-3.96-.11-3.86-2.47.1-2.36,3.89.11,3.86Z"/>
          <path class="st1" d="M67.55,171.38c1.54-1.23.44-3.56-1.56-3.22-.43.07-1,.58-1.19.97-.85,1.72,1.25,3.45,2.76,2.25Z"/>
          <path class="st1" d="M71.21,168.49c2.36-.04,2.24-3.7-.11-3.57-2.31.13-2.14,3.61.11,3.57Z"/>
          <path class="st1" d="M65.34,172.26c-1.82.31-1.78,3.18.06,3.43,2.75.38,2.69-3.9-.06-3.43Z"/>
          <path class="st1" d="M70.15,172.31c2.67.37,2.61-3.74-.06-3.29-1.73.3-1.69,3.04.06,3.29Z"/>
          <path class="st1" d="M69.37,173.12c-1.63.28-1.61,2.91.06,3.14,2.58.36,2.53-3.58-.06-3.14Z"/>
          <path class="st1" d="M68.86,177.15c-2.37.25-1.41,3.99.82,2.99,1.59-.71.9-3.17-.82-2.99Z"/>
          <path class="st1" d="M74.34,169.81c-2.35.13-1.61,3.91.69,3,1.6-.64,1.03-3.09-.69-3Z"/>
          <path class="st1" d="M73.47,173.92c-1.85.31-1.47,3.34.61,2.99,1.85-.31,1.47-3.34-.61-2.99Z"/>
          <path class="st1" d="M72.9,177.95c-.97.11-1.58,1.14-1.22,2.05.49,1.25,2.27,1.25,2.76,0,.41-1.04-.44-2.17-1.54-2.05Z"/>
          <path class="st1" d="M78.48,173.6c1.97-.04,1.89-3.11-.11-3-1.92.11-1.79,3.03.11,3Z"/>
          <path class="st1" d="M77.35,174.71c-1.44.29-1.39,2.62.06,2.86,2.38.39,2.3-3.34-.06-2.86Z"/>
          <path class="st1" d="M76.85,178.67c-2.1.34-1.13,3.68.89,2.68,1.47-.73.68-2.94-.89-2.68Z"/>
          <path class="st1" d="M81.53,175.5c-1.7.28-1.35,2.92.41,2.71,1.78-.22,1.42-3.01-.41-2.71Z"/>
          <path class="st1" d="M80.73,179.53c-1.58.33-1.15,2.92.62,2.56,1.58-.33,1.15-2.92-.62-2.56Z"/>
          <path class="st1" d="M80.09,183.63c-1.49.25-1.22,2.62.41,2.42,1.57-.19,1.29-2.71-.41-2.42Z"/>
          <path class="st1" d="M85.48,176.36c-.25.05-.6.36-.71.58-.58,1.08.71,2.23,1.71,1.49,1.04-.77.28-2.33-.99-2.07Z"/>
          <path class="st1" d="M84.84,180.46c-1.35.28-.96,2.42.47,2.13,1.35-.28.96-2.42-.47-2.13Z"/>
          <path class="st1" d="M84.27,184.56c-1.5.13-.93,2.53.51,1.88.99-.45.57-1.98-.51-1.88Z"/>
          <path class="st1" d="M89.66,177.29c-1.45.16-.73,2.46.55,1.7.89-.53.33-1.8-.55-1.7Z"/>
          <path class="st1" d="M88.94,181.47c-.96.19-.74,1.68.26,1.57,1.04-.12.82-1.78-.26-1.57Z"/>
          <path class="st1" d="M88.22,185.64c-.78.17-.55,1.46.33,1.27.78-.17.55-1.46-.33-1.27Z"/>
          <path class="st1" d="M93.69,178.37c-.96.17-.21,1.69.49.93.4-.43-.05-1.01-.49-.93Z"/>
          <path class="st1" d="M87.43,189.75c-.38.11-.38.87,0,.98,1.02.3,1.02-1.28,0-.98Z"/>
          <path class="st1" d="M92.97,182.55c-.53.1-.4.95.18.84.53-.1.4-.95-.18-.84Z"/>
          <path class="st1" d="M92.24,186.65c-.18.06-.24.55.13.57.54.03.44-.76-.13-.57Z"/>
          <path class="st1" d="M64.54,97.99c-2.37.37-1.97,4.28.76,3.85,2.37-.37,1.97-4.28-.76-3.85Z"/>
          <path class="st1" d="M73.4,95.4c-2.45.3-2.08,4.01.34,3.87,2.6-.15,2.26-4.18-.34-3.87Z"/>
          <path class="st1" d="M69.52,94.68c-2.47.1-2.36,3.89.11,3.86,2.52-.03,2.46-3.96-.11-3.86Z"/>
          <path class="st1" d="M65.56,94.04c-2.47.1-2.36,3.89.11,3.86,2.52-.03,2.46-3.96-.11-3.86Z"/>
          <path class="st1" d="M73.97,91.52c-2.26.36-1.88,4.13.76,3.71,2.26-.36,1.88-4.13-.76-3.71Z"/>
          <path class="st1" d="M69.94,90.8c-.65.11-1.36.83-1.48,1.48-.34,2.01,2.24,3.11,3.4,1.45.98-1.4-.27-3.21-1.92-2.93Z"/>
          <path class="st1" d="M65.91,90.08c-.65.11-1.36.83-1.48,1.48-.34,2.01,2.24,3.11,3.4,1.45.98-1.4-.27-3.21-1.92-2.93Z"/>
          <path class="st1" d="M66.69,89.69c2.84.37,2.79-4.03-.06-3.57-1.91.31-1.88,3.32.06,3.57Z"/>
          <path class="st1" d="M74.69,87.56c-2.18.37-1.76,4,.76,3.56,2.18-.37,1.76-4-.76-3.56Z"/>
          <path class="st1" d="M70.66,86.84c-2.18.37-1.76,4,.76,3.56,2.18-.37,1.76-4-.76-3.56Z"/>
          <path class="st1" d="M67.98,85.66c2.21-.28,1.8-3.8-.55-3.43-2.13.34-1.72,3.72.55,3.43Z"/>
          <path class="st1" d="M72.48,86.14c1.73-.76.99-3.45-.88-3.26-2.59.27-1.58,4.34.88,3.26Z"/>
          <path class="st1" d="M75.34,83.67c-1.73.3-1.69,3.04.06,3.29,2.67.37,2.61-3.74-.06-3.29Z"/>
          <path class="st1" d="M68.13,81.49c2.58.36,2.53-3.58-.06-3.14-1.63.28-1.61,2.91.06,3.14Z"/>
          <path class="st1" d="M72.58,82.22c2.09-.12,1.86-3.43-.34-3.15-1.93.25-1.69,3.26.34,3.15Z"/>
          <path class="st1" d="M76.06,79.79c-1.79.37-1.37,3.42.76,2.99,1.79-.37,1.37-3.42-.76-2.99Z"/>
          <path class="st1" d="M70.55,76.44c.41-1.04-.44-2.17-1.54-2.05-.97.11-1.58,1.14-1.22,2.05.49,1.25,2.27,1.25,2.76,0Z"/>
          <path class="st1" d="M73.3,78.04c1.83-.17,1.62-3.12-.4-2.85-1.76.23-1.54,3.03.4,2.85Z"/>
          <path class="st1" d="M76.85,75.97c-1.44.25-1.4,2.52.06,2.71,2.18.29,2.12-3.09-.06-2.71Z"/>
          <path class="st1" d="M74.15,73.85c1.58-.33,1.15-2.92-.62-2.56-1.58.33-1.15,2.92.62,2.56Z"/>
          <path class="st1" d="M80.88,76.76c-1.58.33-1.15,2.92.62,2.56,1.58-.33,1.15-2.92-.62-2.56Z"/>
          <path class="st1" d="M77.64,72.09c-.29.05-.65.32-.81.56-.69,1.06.62,2.38,1.68,1.68,1.15-.75.44-2.46-.88-2.25Z"/>
          <path class="st1" d="M75.25,69.55c1.04-.77.28-2.33-.99-2.07-.25.05-.6.36-.71.58-.58,1.08.71,2.23,1.71,1.49Z"/>
          <path class="st1" d="M81.82,72.88c-1.72.14-1.08,2.89.57,2.16,1.13-.5.66-2.25-.57-2.16Z"/>
          <path class="st1" d="M78.36,68.2c-1.35.28-.96,2.42.47,2.13,1.35-.28.96-2.42-.47-2.13Z"/>
          <path class="st1" d="M85.63,73.74c-1.23.25-.89,2.26.47,1.98,1.23-.25.89-2.26-.47-1.98Z"/>
          <path class="st1" d="M82.54,68.99c-1.5.13-.93,2.53.51,1.88.99-.45.57-1.98-.51-1.88Z"/>
          <path class="st1" d="M80.04,65.92c.63-.74-.05-1.76-1.03-1.53-.16.04-.51.36-.57.51-.42,1.04.88,1.87,1.6,1.03Z"/>
          <path class="st1" d="M86.5,69.78c-1.45.16-.73,2.46.55,1.7.89-.53.33-1.8-.55-1.7Z"/>
          <path class="st1" d="M82.96,65.18c-.73.17-.76,1.46-.05,1.68,1.59.49,1.71-2.06.05-1.68Z"/>
          <path class="st1" d="M83.83,61.15c-1.07.21-.79,1.83.26,1.71,1.15-.13.87-1.93-.26-1.71Z"/>
          <path class="st1" d="M87.21,65.82c-1.31.15-.72,2.23.5,1.58.82-.44.38-1.68-.5-1.58Z"/>
          <path class="st1" d="M90.31,70.65c-.64.16-.67,1.31-.05,1.53,1.48.51,1.59-1.92.05-1.53Z"/>
          <path class="st1" d="M88,61.95c-1,.03-.94,1.57.05,1.53,1-.03.94-1.57-.05-1.53Z"/>
          <path class="st1" d="M91.1,66.69c-.63.14-.66,1.2-.05,1.39,1.3.4,1.39-1.7.05-1.39Z"/>
          <path class="st1" d="M88.58,58.12c-.66.14-.52,1.31.33,1.12.66-.14.52-1.31-.33-1.12Z"/>
          <path class="st1" d="M91.82,62.87c-.38.11-.38.87,0,.98,1.02.3,1.02-1.28,0-.98Z"/>
          <path class="st1" d="M95.2,67.62c-.61.11-.48,1.03.12,1,.68-.04.56-1.12-.12-1Z"/>
          <path class="st1" d="M92.53,59.13c-.18.06-.24.55.13.57.54.03.44-.76-.13-.57Z"/>
          <path class="st1" d="M95.92,63.8c-.34.09-.21.67.19.56.34-.09.21-.67-.19-.56Z"/>
          <path class="st1" d="M193.43,56.11c-1.92.32-1.88,3.45.06,3.72,3.07.42,3-4.23-.06-3.72Z"/>
          <path class="st1" d="M199.38,52.5c2.51-.14,2.2-4.03-.34-3.72-2.36.29-2.01,3.86.34,3.72Z"/>
          <path class="st1" d="M194.22,52.15c-2.18.37-1.76,4,.76,3.56,2.18-.37,1.76-4-.76-3.56Z"/>
          <path class="st1" d="M195.57,51.7c2.21-.28,1.8-3.8-.55-3.43-2.13.34-1.72,3.72.55,3.43Z"/>
          <path class="st1" d="M190.27,51.58c-2,.29-1.72,3.61.61,3.27,2-.29,1.72-3.61-.61-3.27Z"/>
          <path class="st1" d="M196.29,47.6c2.1-.26,1.74-3.65-.55-3.29-2.02.32-1.67,3.57.55,3.29Z"/>
          <path class="st1" d="M191.6,50.82c1.94-.31,1.6-3.48-.61-3.13-1.94.31-1.6,3.48.61,3.13Z"/>
          <path class="st1" d="M192.03,46.78c2.05-.03,1.99-3.14-.05-3.11-2.05.03-1.99,3.14.05,3.11Z"/>
          <path class="st1" d="M186.16,51.07c-1.55.27-1.53,2.83.13,3.01,2.44.26,2.34-3.43-.13-3.01Z"/>
          <path class="st1" d="M187.43,50.04c1.98-.22,1.6-3.31-.41-3-1.91.29-1.52,3.22.41,3Z"/>
          <path class="st1" d="M188.01,46.01c1.97-.04,1.89-3.11-.11-3-1.92.11-1.79,3.03.11,3Z"/>
          <path class="st1" d="M182.2,50.43c-1.45.27-1.42,2.69.13,2.86,2.34.27,2.22-3.29-.13-2.86Z"/>
          <path class="st1" d="M188.45,41.99c2.34.27,2.22-3.29-.13-2.86-1.45.27-1.42,2.69.13,2.86Z"/>
          <path class="st1" d="M183.61,49.24c1.74-.3,1.4-3.19-.61-2.84-1.74.3-1.4,3.19.61,2.84Z"/>
          <path class="st1" d="M183.98,45.23c1.92-.05,1.76-3.08-.19-2.86-1.79.2-1.57,2.91.19,2.86Z"/>
          <path class="st1" d="M184.42,41.19c2.18.29,2.12-3.09-.06-2.71-1.44.25-1.4,2.52.06,2.71Z"/>
          <path class="st1" d="M179.3,48.44c1.75-.04,1.7-2.72-.05-2.68-1.75.04-1.7,2.72.05,2.68Z"/>
          <path class="st1" d="M179.2,44.11c1.08.87,2.53-.36,1.91-1.55-.21-.41-.74-.74-1.21-.7-1.1.09-1.62,1.51-.71,2.25Z"/>
          <path class="st1" d="M181.24,40.18c1.18-.55.66-2.38-.62-2.28-1.85.15-1.14,3.1.62,2.28Z"/>
          <path class="st1" d="M175.72,47.4c1.13-.5.66-2.25-.57-2.16-1.72.14-1.08,2.89.57,2.16Z"/>
          <path class="st1" d="M175.85,43.43c1.61.11,1.48-2.35-.2-2-.98.2-.99,1.92.2,2Z"/>
          <path class="st1" d="M176.92,39.31c1.11-.23.85-2.11-.47-1.84-1.11.23-.85,2.11.47,1.84Z"/>
          <path class="st1" d="M171.62,46.46c.82-.44.38-1.68-.5-1.58-1.31.15-.72,2.23.5,1.58Z"/>
          <path class="st1" d="M177.05,35.11c1.48.51,1.59-1.92.05-1.53-.64.16-.67,1.31-.05,1.53Z"/>
          <path class="st1" d="M171.64,42.39c1.3.4,1.39-1.7.06-1.39-.63.14-.66,1.2-.06,1.39Z"/>
          <path class="st1" d="M172.42,38.23c1.09.33,1.09-1.45,0-1.12-.46.14-.46.98,0,1.12Z"/>
          <path class="st1" d="M173.4,34.12c.63-.03.58-1-.05-.96-.63.03-.58,1,.05.96Z"/>
          <path class="st1" d="M167.87,41.34c.69.11.62-.91-.06-.71-.29.09-.29.65.06.71Z"/>
          <path class="st1" d="M168.72,37.23c.34-.09.21-.67-.19-.56-.34.09-.21.67.19.56Z"/>
          <path class="st1" d="M193.07,124.23c3.18.54,3.18-4.39,0-3.85-1.98.34-1.98,3.52,0,3.85Z"/>
          <path class="st1" d="M188.95,127.48c2.6-.15,2.26-4.18-.34-3.87-2.45.3-2.08,4.01.34,3.87Z"/>
          <path class="st1" d="M192.98,128.2c2.6-.15,2.26-4.18-.34-3.87-2.45.3-2.08,4.01.34,3.87Z"/>
          <path class="st1" d="M196.86,128.92c2.58-.04,2.44-4.08-.19-3.87-2.45.19-2.24,3.91.19,3.87Z"/>
          <path class="st1" d="M195.81,129.15c-2.26.36-1.88,4.13.76,3.71,2.26-.36,1.88-4.13-.76-3.71Z"/>
          <path class="st1" d="M192.53,132.14c2.26-.36,1.88-4.13-.76-3.71-2.26.36-1.88,4.13.76,3.71Z"/>
          <path class="st1" d="M188.5,131.42c2.26-.36,1.88-4.13-.76-3.71-2.26.36-1.88,4.13.76,3.71Z"/>
          <path class="st1" d="M195.09,133.26c-1.91.31-1.88,3.32.06,3.57,2.84.37,2.79-4.03-.06-3.57Z"/>
          <path class="st1" d="M191.81,136.1c2.18-.37,1.76-4-.76-3.56-2.18.37-1.76,4,.76,3.56Z"/>
          <path class="st1" d="M187.78,135.38c2.18-.37,1.76-4-.76-3.56-2.18.37-1.76,4,.76,3.56Z"/>
          <path class="st1" d="M194.44,137.29c-2.13.34-1.72,3.72.55,3.43,2.21-.28,1.8-3.8-.55-3.43Z"/>
          <path class="st1" d="M190.56,136.57c-2.16.18-1.98,3.47.19,3.44,2.28-.04,2.18-3.63-.19-3.44Z"/>
          <path class="st1" d="M187.62,139.03c1.5-1.02.58-3.36-1.31-3.04-.38.06-.85.43-1.05.75-.95,1.5.89,3.29,2.36,2.29Z"/>
          <path class="st1" d="M193.65,141.46c-1.63.28-1.61,2.91.06,3.14,2.58.36,2.53-3.58-.06-3.14Z"/>
          <path class="st1" d="M189.76,140.74c-1.93.25-1.69,3.26.34,3.15,2.09-.12,1.86-3.43-.34-3.15Z"/>
          <path class="st1" d="M186.42,143.08c1.79-.37,1.37-3.42-.76-2.99-1.79.37-1.37,3.42.76,2.99Z"/>
          <path class="st1" d="M193.22,145.56c-1.92.11-1.79,3.03.11,3,1.97-.04,1.89-3.11-.11-3Z"/>
          <path class="st1" d="M189.04,144.91c-2.1.34-1.13,3.68.89,2.68,1.47-.73.68-2.94-.89-2.68Z"/>
          <path class="st1" d="M185.49,146.98c1.78-.22,1.42-3.01-.41-2.71-1.7.28-1.35,2.92.41,2.71Z"/>
          <path class="st1" d="M188.39,149.09c-1.83.31-1.03,3.26.79,2.44,1.35-.61.7-2.69-.79-2.44Z"/>
          <path class="st1" d="M181.84,146.06c1.35-.61.7-2.69-.79-2.44-1.83.31-1.03,3.26.79,2.44Z"/>
          <path class="st1" d="M185.18,150.69c1.21-.65.5-2.44-.74-2.26-1.85.27-.95,3.17.74,2.26Z"/>
          <path class="st1" d="M187.67,153.19c-1.39.22-1.15,2.53.47,2.27,1.39-.22,1.15-2.53-.47-2.27Z"/>
          <path class="st1" d="M180.61,150.01c1.53-.03,1.4-2.47-.34-2.15-1.09.2-1.11,2.17.34,2.15Z"/>
          <path class="st1" d="M183.98,154.68c1.42-.13,1.17-2.35-.26-2.14-1.35.19-1.08,2.27.26,2.14Z"/>
          <path class="st1" d="M176.64,149.21c1.32-.12,1.11-2.19-.26-2-1.24.18-1.03,2.12.26,2Z"/>
          <path class="st1" d="M179.87,153.94c1.29-.04,1.22-2-.05-1.97-1.29.04-1.22,2,.05,1.97Z"/>
          <path class="st1" d="M182.92,156.72c-.99.18-.95,1.83.2,1.86,1.39.03,1.28-2.12-.2-1.86Z"/>
          <path class="st1" d="M179.03,157.77c1.42.21,1.37-2-.06-1.71-.86.18-.84,1.57.06,1.71Z"/>
          <path class="st1" d="M175.72,153.1c1.42.21,1.37-2-.06-1.71-.86.18-.84,1.57.06,1.71Z"/>
          <path class="st1" d="M178.89,161.68c.82-.44.38-1.68-.5-1.58-1.31.15-.72,2.23.5,1.58Z"/>
          <path class="st1" d="M174.81,156.95c1.48.51,1.59-1.92.05-1.53-.64.16-.67,1.31-.05,1.53Z"/>
          <path class="st1" d="M172.15,152.28c.85-.27.59-1.79-.53-1.54-.94.22-.63,1.9.53,1.54Z"/>
          <path class="st1" d="M174.16,160.91c1.3.4,1.39-1.7.06-1.39-.63.14-.66,1.2-.06,1.39Z"/>
          <path class="st1" d="M171.24,156.27c.93-.11.76-1.62-.26-1.42-.85.16-.68,1.53.26,1.42Z"/>
          <path class="st1" d="M173.9,164.82c.66-.14.52-1.31-.33-1.12-.66.14-.52,1.31.33,1.12Z"/>
          <path class="st1" d="M170.18,159.99c1.02.3,1.02-1.28,0-.98-.38.11-.38.87,0,.98Z"/>
          <path class="st1" d="M167.14,155.31c.63-.03.58-1-.05-.96-.63.03-.58,1,.05.96Z"/>
          <path class="st1" d="M166.56,159.06c.34-.09.21-.67-.19-.56-.34.09-.21.67.19.56Z"/>
          <path class="st1" d="M169.79,163.81c.34-.09.21-.67-.19-.56-.34.09-.21.67.19.56Z"/>
          <path class="st1" d="M229.24,121.55c0-2.04-.14-2.04-.14-4.08s.02-2.04.02-4.08-.32-2.04-.32-4.08.4-2.04.4-4.08-.38-2.04-.37-4.08c.01-2.04.24-2.04.24-4.08,0-1.41-.35-2.81-.43-4.22-.08-1.41-.16-2.81-.33-4.21-.16-1.4-.25-2.81-.5-4.2-.25-1.39-.28-2.83-.61-4.2-.33-1.37-.83-2.71-1.24-4.06-.41-1.35-.58-2.79-1.06-4.12-.48-1.33-1.55-2.42-2.11-3.72-.56-1.3-1.14-2.57-1.77-3.83-.63-1.26-1.27-2.51-1.97-3.73s-1.03-2.69-1.8-3.87c-.78-1.18-1.62-2.33-2.47-3.46-.84-1.13-2.08-1.96-2.98-3.04-.91-1.08-1.85-2.12-2.82-3.15-.97-1.03-1.9-2.08-2.93-3.05-1.03-.97-2.1-1.87-3.18-2.78-1.08-.91-2.07-1.93-3.2-2.78-1.13-.84-2.33-1.59-3.51-2.37-1.18-.78-2.27-1.7-3.49-2.41-1.78-1.03-1.87-.87-3.64-1.9-1.78-1.03-1.9-.82-3.67-1.85-1.78-1.03-1.49-1.53-3.27-2.55-1.78-1.03-1.94-.74-3.72-1.77-1.78-1.03-1.82-.95-3.6-1.98-1.78-1.03-1.57-1.38-3.35-2.41-1.78-1.03-2.04-.58-3.81-1.61-1.23-.71-2.36-1.57-3.62-2.2-1.26-.63-2.51-1.3-3.81-1.86-1.3-.56-2.55-1.26-3.88-1.74-1.33-.48-2.75-.71-4.1-1.12-1.35-.41-2.67-.98-4.04-1.31-1.37-.33-2.81-.43-4.2-.67-1.39-.25-2.8-.35-4.21-.52-1.4-.16-2.79-.57-4.2-.65-1.41-.08-2.84.2-4.25.2s-2.81.19-4.22.27c-1.41.08-2.86-.23-4.26-.07-1.4.16-2.74.78-4.13,1.03-1.39.25-2.82.28-4.2.6-1.37.33-2.67.93-4.03,1.34-1.35.41-2.65.94-3.98,1.42-1.33.48-2.65.95-3.94,1.51-1.3.56-2.62,1.05-3.88,1.68-1.26.63-2.48,1.33-3.7,2.04-1.77,1.02-1.75,1.05-3.52,2.07-1.77,1.02-1.87.84-3.63,1.86-1.77,1.02-1.78,1-3.54,2.02-1.77,1.02-1.82.93-3.59,1.95-1.77,1.02-1.58,1.35-3.35,2.37-1.77,1.02-1.97.67-3.74,1.69s-1.61,1.3-3.37,2.32c-1.23.71-2.5,1.35-3.68,2.13-1.19.78-2.42,1.5-3.55,2.35-1.14.85-2.28,1.71-3.36,2.62-1.09.91-2.19,1.82-3.22,2.79-1.03.97-2.11,1.92-3.08,2.96-.97,1.03-1.74,2.26-2.65,3.35-.91,1.09-1.59,2.35-2.44,3.49-.85,1.14-1.89,2.13-2.67,3.32-.78,1.18-1.62,2.34-2.33,3.57-.71,1.23-1.45,2.45-2.08,3.72-.64,1.27-.83,2.74-1.39,4.04-.56,1.3-1.21,2.56-1.69,3.89-.48,1.33-1.15,2.61-1.55,3.96-.41,1.36-.45,2.81-.78,4.19-.33,1.38-.97,2.69-1.21,4.09-.25,1.39,0,2.86-.17,4.27-.17,1.41-.85,2.77-.93,4.18-.08,1.41.35,2.84.35,4.26,0,0,0,.08,0,.09,0,2.04.01,2.02.01,4.06s-.15,2.04-.15,4.08-.27,2.04-.27,4.08.05,2.04.05,4.08.04,2.04.04,4.08.25,2.04.25,4.08-.41,2.04-.41,4.08c0,1.41.27,2.83.36,4.24.08,1.41.02,2.84.19,4.25.16,1.4.65,2.77.9,4.16.25,1.39.55,2.77.87,4.14.33,1.37.51,2.79.92,4.14.41,1.35,1.23,2.56,1.72,3.89.48,1.33.72,2.75,1.28,4.04.56,1.3,1.28,2.51,1.92,3.78.63,1.26.93,2.71,1.63,3.94.71,1.23,1.89,2.16,2.66,3.34.78,1.18,1.5,2.39,2.34,3.52.84,1.13,1.79,2.18,2.7,3.26.91,1.08,1.85,2.12,2.82,3.14.97,1.03,1.94,2.04,2.97,3.01,1.03.97,2.05,1.94,3.13,2.84,1.08.91,2.07,1.93,3.2,2.78,1.13.84,2.26,1.7,3.44,2.48,1.18.78,2.56,1.23,3.78,1.94,1.78,1.03,1.65,1.25,3.42,2.28,1.78,1.03,1.89.83,3.67,1.86,1.78,1.03,1.55,1.41,3.33,2.44,1.78,1.03,1.78,1.02,3.56,2.05,1.78,1.03,1.82.96,3.6,1.98,1.78,1.03,1.72,1.13,3.5,2.16s1.99.66,3.77,1.69c1.23.71,2.32,1.66,3.58,2.29,1.26.63,2.71.88,4,1.44,1.3.56,2.51,1.34,3.83,1.82,1.33.48,2.77.6,4.13,1,1.35.41,2.66.93,4.04,1.25,1.37.33,2.69.94,4.09,1.19,1.39.25,2.82.26,4.23.43,1.4.16,2.8.54,4.21.62,1.41.08,2.84-.46,4.25-.46s2.83.27,4.24.19c1.41-.08,2.85.06,4.25-.11,1.4-.16,2.73-.89,4.12-1.14,1.39-.25,2.76-.55,4.13-.88,1.37-.33,2.89-.14,4.24-.55,1.35-.41,2.55-1.31,3.87-1.79,1.33-.48,2.82-.56,4.12-1.12,1.3-.56,2.5-1.35,3.76-1.98,1.26-.63,2.6-1.15,3.82-1.86,1.77-1.02,1.66-1.21,3.42-2.23,1.77-1.02,1.8-.95,3.57-1.97q1.77-1.02,3.53-2.04c1.77-1.02,1.61-1.3,3.37-2.32,1.77-1.02,1.92-.75,3.69-1.77,1.77-1.02,1.79-.98,3.56-2,1.77-1.02,1.62-1.27,3.39-2.29,1.23-.71,2.64-1.13,3.83-1.91,1.19-.78,2.17-1.86,3.31-2.71,1.14-.85,2.38-1.57,3.47-2.48,1.09-.91,2.1-1.92,3.13-2.89,1.03-.97,2.1-1.92,3.07-2.95.97-1.03,1.69-2.3,2.6-3.38.91-1.09,1.73-2.23,2.58-3.37.85-1.14,1.65-2.29,2.43-3.47.78-1.18,1.71-2.27,2.42-3.5.71-1.23,1.24-2.55,1.87-3.81.64-1.27,1.32-2.5,1.88-3.8.56-1.3.9-2.68,1.39-4.01.48-1.33,1.06-2.62,1.47-3.98.41-1.36.9-2.69,1.22-4.07.33-1.38.58-2.77.83-4.17.25-1.39.48-2.79.65-4.2.17-1.41.23-2.82.31-4.24.08-1.41-.06-2.89-.05-4.31,0-2.04.45-2.04.45-4.08ZM208.42,57.46l.43,1.01-.86.58c.08-.23-.69-.8-.65-.86.45-.09.74-.45,1.08-.72ZM204.89,52.53l.36-.61c0,.73.33,1.56,1.01,1.87l-.04.14c-.72.05-1.16.59-1.61,1.08-.06-.54-.39-.99-.8-1.33l-.64-.33c.7-.03,1.28-.27,1.72-.83ZM204.1,61.78l-.79.5-.65-.86,1.01-.58c-.08.24.48.86.43.93ZM203.99,58.68c-.29-.56-.59-.93-1.12-1.29.73,0,1.01-.44,1.43-.89.06-.06.05-.06.15-.05-.01.22.07.41.15.6.15.33.43.52.57.84-.52.05-.85.45-1.19.79ZM39.38,92.8c.1-1.47.3-2.93.5-4.38.19-1.46.8-2.84,1.08-4.28.29-1.44.34-2.93.72-4.34.38-1.42.82-2.82,1.29-4.21.47-1.39,1.26-2.66,1.82-4.01.56-1.35,1.06-2.73,1.7-4.04.65-1.31,1.22-2.67,1.95-3.94.73-1.27,1.48-2.54,2.3-3.75.81-1.22,1.86-2.27,2.76-3.43.89-1.16,1.84-2.27,2.81-3.37.96-1.1,1.88-2.24,2.92-3.28,1.03-1.03,2.24-1.88,3.34-2.85,1.1-.96,1.99-2.18,3.15-3.08,1.16-.89,2.57-1.43,3.79-2.25,1.21-.81,2.3-1.82,3.58-2.56,1.77-1.02,1.83-.92,3.59-1.94,1.77-1.02,1.74-1.07,3.5-2.09,1.77-1.02,1.64-1.25,3.4-2.27,1.77-1.02,2.04-.56,3.8-1.58,1.77-1.02,1.62-1.28,3.39-2.3,1.77-1.02,1.76-1.03,3.53-2.05,1.77-1.02,1.81-.95,3.58-1.97,1.27-.73,2.61-1.3,3.91-1.94,1.31-.65,2.46-1.66,3.8-2.21,1.35-.56,2.77-.96,4.15-1.43,1.38-.47,2.89-.53,4.29-.9,1.41-.38,2.8-.76,4.23-1.05,1.43-.28,2.83-.77,4.27-.96,1.45-.19,2.91-.23,4.36-.33,1.46-.09,2.91-.36,4.37-.36s2.91.38,4.36.47c1.45.09,2.88.35,4.33.53,1.44.19,2.89.3,4.32.59,1.43.28,2.84.61,4.25.99,1.41.37,2.75.91,4.14,1.38,1.38.47,2.87.62,4.23,1.18,1.34.56,2.62,1.28,3.93,1.93,1.3.64,2.45,1.57,3.72,2.3,1.78,1.03,2.07.52,3.85,1.54,1.78,1.03,1.67,1.22,3.44,2.24.93.54,1.39.76,1.87,1,.09.18.28.3.49.25.32.17.71.37,1.26.69,1.78,1.03,1.69,1.18,3.47,2.21.95.55,1.37.84,1.83,1.14-.2.12-.37.32-.45.53-.45,1.15.96,2.08,1.83,1.25.15-.14.29-.44.34-.72.72.41,1.16.63,1.55.81.15.88,1.15,1.47,1.98,1.01.02.01.04.02.06.03,1.78,1.03,1.83.94,3.61,1.96.68.39,1.32.79,1.95,1.19-1.53,1.78,1.44,3.7,2.45,1.61.37.24.73.48,1.1.72.21.64.85,1,1.49,1.05.04.03.08.06.11.08.68.51,1.33,1.11,1.98,1.71-1.81,1.9,1.06,4.41,2.7,2.32.6.48,1.19.96,1.75,1.51.1.1.19.2.29.3l-.17-.17c-1.94.11-2.78,2.42-1.18,3.63l.57.33c-.71-.01-1.4.31-1.83.87l-.33.64c.14-2.19-2.92-2.91-3.73-.89-.79,1.98,1.59,3.56,3.16,2.15l.5-.76c0,.84.44,1.45,1.08,1.94-.43.02-1,.3-1.3.61-.15.15-.2.36-.36.47-.58-2.58-4.34-2.01-4.03.68.08.68.58,1.15,1.08,1.55-.61.04-1.2.39-1.54.89-.15-.11-.29-.21-.44-.31,0-.02-.01-.04-.02-.05-.3-.63-.96-1.03-1.64-1.09-.12-.08-.23-.16-.35-.23-.63-.41-1.19-.94-1.76-1.44.05-.06.09-.12.13-.18.76-1.36-.35-2.86-1.88-2.6-.43.07-.87.42-1.14.85-.36-.2-.65-.36-1.04-.58-.27-.54-.83-.88-1.49-.84-1.57-.86-1.87-.56-3.59-1.56-1.33-.77-1.7-1.05-2.51-1.55.66-1.04-.23-2.29-1.46-2.08-.37.06-.71.39-.9.71-.73-.41-1.08-.59-2.36-1.33-1.82-1.05-1.83-1.02-3.65-2.06-1.82-1.05-1.72-1.22-3.54-2.26-.06-.03-.1-.06-.16-.09-.06-.12-.2-.18-.34-.2-1.34-.76-1.54-.8-3.17-1.74-1.82-1.05-1.71-1.24-3.53-2.29-1.82-1.05-1.91-.9-3.72-1.95-1.3-.75-2.72-1.22-4.06-1.85-1.36-.63-2.52-1.73-3.91-2.24-1.41-.51-2.94-.65-4.38-1.03-1.44-.38-2.91-.62-4.38-.88-1.47-.26-2.9-.86-4.39-.99-1.49-.13-3,.32-4.49.32s-2.98-.15-4.47-.02c-1.48.13-2.98.25-4.45.5-1.47.26-2.98.4-4.42.79-1.44.38-2.8,1.05-4.21,1.56-1.4.51-2.87.88-4.23,1.51-1.35.63-2.59,1.49-3.89,2.24-1.76,1.02-1.71,1.1-3.48,2.12-1.76,1.02-1.9.77-3.67,1.79-1.76,1.02-1.6,1.3-3.36,2.32-1.76,1.02-1.69,1.15-3.45,2.16-1.76,1.02-1.98.63-3.75,1.65-1.76,1.02-1.55,1.38-3.32,2.4s-1.89.79-3.66,1.81c-1.3.75-2.42,1.76-3.63,2.61-1.23.86-2.33,1.83-3.47,2.79-1.14.96-2.26,1.92-3.31,2.97-1.06,1.06-2.13,2.07-3.09,3.21-.96,1.14-1.83,2.34-2.68,3.56-.85,1.22-1.62,2.49-2.36,3.78s-1.61,2.51-2.24,3.86c-.63,1.35-1.22,2.72-1.74,4.12-.51,1.4-1.07,2.79-1.46,4.24-.39,1.44-.34,2.97-.61,4.44-.26,1.46-.86,2.89-.99,4.38-.13,1.48.13,2.98.13,4.48s-.07,2.85.04,4.26c.11,1.42.15,2.85.36,4.25.21,1.41.45,2.82.77,4.2.32,1.39.64,2.79,1.06,4.14.42,1.36.82,2.75,1.34,4.07.52,1.32,1.32,2.54,1.94,3.82.62,1.28,1.5,2.41,2.21,3.65s1.22,2.58,2.02,3.76c.8,1.17,1.56,2.39,2.45,3.5.88,1.11,1.77,2.25,2.73,3.29.96,1.04,2.28,1.74,3.33,2.71,1.04.97,2.02,1.99,3.13,2.88,1.11.88,2.12,1.92,3.3,2.72,1.17.8,2.55,1.28,3.79,1.99,2.01,1.16,1.83,1.47,3.84,2.63s2.24.77,4.25,1.93c1.03.59.99.66,2.02,1.26,2.01,1.16,1.91,1.32,3.92,2.48,2.01,1.16,2.15.91,4.15,2.07,2.01,1.16,1.82,1.48,3.83,2.64,2.01,1.16,2.15.91,4.16,2.06,2.01,1.16,1.93,1.29,3.94,2.45,1.24.72,1.14.9,2.38,1.62,1.12.65,2.32,1.19,3.5,1.68,1.2.49,2.5.67,3.74,1,1.25.33,2.44.99,3.72,1.16,1.28.17,2.6.02,3.89.02s2.61.1,3.89-.07c1.28-.17,2.5-.7,3.75-1.03,1.24-.33,2.45-.75,3.65-1.25,1.18-.49,2.43-.89,3.55-1.54,1.76-1.01,1.56-1.37,3.31-2.38,1.76-1.01,1.91-.75,3.67-1.77,1.76-1.01,1.69-1.14,3.44-2.15,1.76-1.02,1.97-.64,3.73-1.66,1.76-1.01,1.5-1.46,3.26-2.47,1.76-1.02,1.81-.93,3.57-1.94,1.76-1.02,1.71-1.1,3.47-2.11,1.29-.74,2.47-1.57,3.61-2.49,1.16-.92,2.24-1.89,3.23-2.96.26-.28.52-.57.77-.85l-.41.5c.1.09.74-.55.65-.78.62-.73,1.22-1.48,1.76-2.27.16-.24.33-.48.49-.71.87,1.54,3.08.84,2.76-1-.1-.58-.77-1.1-1.39-1.08.16-.27.31-.55.45-.84.29.04.87-.12,1.02-.2,1.05-.54,1.16-2.05.27-2.74.14-.37.27-.74.39-1.11,1.15-.43,1.48-2.06.54-2.94l-.03.1c.06-.56.11-1.11.19-1.67.01-.1.03-.19.05-.29l-.1.85c1.31-.45,1.56-2.32.5-3.16.04-.24.07-.48.09-.72,1.82-.52,1.78-3.22-.11-3.65,0-.08-.01-.15-.02-.24,1.85.27,2.99-1.95,1.7-3.36l-.79-.54c.8.07,1.64-.4,1.94-1.15.09-.02.06.02.09.09.08.19.09.41.19.61.24.5.93,1.11,1.52,1.1.02.12-.1.07-.18.07-.55.03-.84-.01-1.33.33-1.33.93-.94,3.2.64,3.53,2.15.44,3.34-2.06,1.73-3.46l-.72-.39c.94.08,1.61-.42,2.12-1.15.17,1.81,2.54,2.5,3.66,1.07l.4-.64c-.07.68.31,1.39.87,1.76l.64.33c-2.11-.27-3.02,2.69-1.17,3.66,2.14,1.13,4-1.72,2.18-3.26l-.78-.4c.69.08,1.3-.14,1.79-.62l.51-.89c-.08.77.32,1.59,1.02,1.95,0,.1.02.2.02.3-2.24.37-2.23,3.5.02,3.85,0,.02,0,.05,0,.07,0,.05,0,.1,0,.15-1.68-.31-3.05,1.43-2.07,2.94.3.47.92.84,1.51.86-.01.11-.03.22-.04.34-.78-.24-1.64,0-2.13.7-1.03,1.48.43,3.36,2.09,2.88-.02.25-.05.51-.09.76,0,.01,0,.02,0,.03-.39-.44-1.06-.51-1.62-.42-.56.1-1.26.83-1.34,1.39-.17,1.25.62,2.17,1.78,2.21-.07.18-.13.35-.19.53-2.18-.53-3.11,2.68-.92,3.31-.08.26-.17.53-.26.78-1.34.03-2.06,1.57-1.24,2.62-.28.52-.56,1.03-.84,1.55-.66,1.28-1.18,2.62-1.96,3.83-.06.09-.12.17-.17.26-.25-.46-.9-.78-1.39-.73-1.17.13-1.63,1.65-.71,2.4.16.13.42.26.68.3-.32.41-.64.82-.96,1.23-.89,1.13-1.81,2.21-2.81,3.25-.24.25-.47.52-.7.79-.2-.2-.53-.34-.77-.33-1,.03-1.38,1.35-.57,1.91,0,0,0,0,0,0-.27.3-.55.58-.86.85-.74.65-1.6,1.15-2.45,1.68.05-.52-.34-1.08-1.09-.92-.86.18-.8,1.45-.06,1.68-1.16.82-2.38,1.55-3.62,2.27,0,0,0,0,0,0-.09-.32-.47-.61-.85-.57-.81.09-.82,1.07-.42,1.39-.61.45-.94.79-2.12,1.47-.96.55-1.45.71-1.99.9-.2-.09-.39-.01-.47.18-.33.14-.72.32-1.25.63-1.76,1.02-1.6,1.29-3.37,2.31-1.76,1.02-1.87.84-3.63,1.86-1.76,1.02-1.72,1.09-3.49,2.1-1.76,1.02-1.81.94-3.57,1.96-1.76,1.02-1.61,1.28-3.37,2.3-1.25.72-2.51,1.45-3.81,2.04-1.31.6-2.67,1.14-4.02,1.61-1.36.47-2.82.66-4.21,1-1.4.34-2.79.77-4.21.97-1.42.2-2.88.24-4.31.31-1.44.07-2.89.26-4.32.19-1.43-.07-2.87-.35-4.29-.55-1.42-.2-2.81-.6-4.21-.94-1.39-.34-2.78-.71-4.15-1.18-1.35-.47-2.68-1.03-3.99-1.63-1.3-.59-2.61-1.19-3.86-1.92-1.82-1.05-1.81-1.06-3.63-2.11-1.82-1.05-1.86-.96-3.68-2.01-1.82-1.05-1.61-1.41-3.42-2.46-1.82-1.05-2.07-.6-3.89-1.65-1.82-1.05-1.59-1.44-3.41-2.49-1.82-1.05-1.89-.92-3.7-1.97-1.82-1.05-1.81-1.06-3.62-2.11-1.82-1.05-1.98-.77-3.79-1.82-1.82-1.05-1.62-1.4-3.43-2.44-1.23-.71-2.62-1.14-3.8-1.92-1.18-.78-2.19-1.81-3.32-2.65-1.13-.84-2.26-1.7-3.34-2.6-1.08-.91-2-1.99-3.03-2.96-1.03-.97-2.13-1.85-3.1-2.88-.97-1.03-1.9-2.09-2.81-3.17-.91-1.08-1.77-2.2-2.61-3.33-.84-1.13-1.54-2.36-2.32-3.54-.78-1.18-1.51-2.37-2.21-3.6-.71-1.22-1.76-2.26-2.39-3.52-.63-1.26-.98-2.66-1.54-3.96-.56-1.3-1.05-2.62-1.53-3.94-.48-1.33-1.03-2.63-1.44-3.98-.41-1.35-.97-2.67-1.29-4.04-.33-1.37-.39-2.81-.64-4.2-.25-1.39-.22-2.81-.39-4.22-.16-1.4-.33-2.79-.42-4.2-.08-1.41-.45-2.81-.45-4.22,0-1.47-.13-2.95-.03-4.41ZM200.43,61.13c-.52.11-.83.55-1.22.86l-.29-.61-.79-.68c.67-.02,1.14-.48,1.58-.94.06.53.39.98.72,1.37ZM63.27,105.82c-.39,0-.76.15-1.07.38,0-.04-.02-.08-.02-.12-.11-.61-.2-1.23-.29-1.84l.3-.58c-.12.95.32,1.65,1.08,2.16ZM65.35,109.2c.03.26.19.56.33.79.08.13.27.2.25.36-.36.09-.66.3-.9.58l-.76-.93c.47-.11.78-.45,1.08-.79ZM64.49,105.97c.43-.03.78-.26,1.12-.5l.54-.79c.05.68.36,1.43,1.01,1.73.04.06-.77.36-.89.44-.13.09-.6.65-.69.56-.1-.66-.58-1.06-1.08-1.44ZM69.28,110.07l.61.9-.93.54-.51-.75.83-.68ZM68.59,106.68c.52-.06.97-.36,1.3-.76.09-.11.1-.29.21-.32.09.59.37,1.15.86,1.47-.56.21-.95.47-1.36.9-.12-.58-.61-.92-1.01-1.29ZM73.34,110.79c-.02.39.38.59.43.93l-.68.43-.61-.79.86-.58ZM72.7,107.4c.38-.06.68-.28.97-.51l.47-.65c-.03.66.38,1.14.79,1.58-.51.09-.91.43-1.26.79l-.4-.68-.57-.54ZM76.58,112.12c.2-.07.39-.33.58-.43,0,.29,0,.61,0,1.04l-.11.07-.47-.68ZM188.84,114.31c.12.55.56.86.94,1.22l-.75.36-.68.79c.02-.68-.42-1.19-.86-1.65.2-.01.4-.08.58-.18.17-.09.71-.59.79-.54ZM188.7,111.25l.79-.47.43.68-.79.61c0-.34-.27-.56-.43-.83ZM192.77,114.82c.27.55.57,1.15,1.19,1.37l-1,.47-.58.68-.26-.79-.75-.8c.54-.14,1.11-.43,1.4-.94ZM192.59,111.87c.25.07.84-.56.93-.5l.58.86c-.43.09-.68.48-1.01.72-.04-.36-.28-.69-.5-.97v-.11ZM196.75,115.51c.06-.06.05-.07.15-.05l.33.79.82.73c-.48.01-.9.29-1.25.58l-.47.71c-.08-.52-.18-.96-.54-1.37-.08-.1-.55-.42-.47-.5.7,0,1.02-.45,1.43-.89ZM196.47,112.51c.29.1.99-.64,1.08-.58.09.43.48.68.72,1.01-.5.04-.77.52-1.15.79-.03-.17-.09-.35-.18-.51-.06-.12-.51-.67-.47-.72ZM199.21,117.12c.38-.01.69-.14.96-.33,0,.01,0,.02,0,.03.11.6.29,1.18.48,1.77l-.36.69c.13-.95-.35-1.63-1.08-2.16ZM63.2,159.07l-1.04.79-.54-1c.31-.07.54-.29.76-.5.09.08.18.16.28.23.01,0,.02.02.03.03.16.23.36.48.52.46ZM56.42,166.89c-.15-.33-.43-.52-.57-.84.52-.05.85-.45,1.19-.79.29.44.48.99,1.04,1.15.03.2-.02.11-.11.14-.66.26-.97.41-1.4,1.01.02-.25-.06-.45-.15-.67ZM53.05,164.9c.06.37.43.56.65.83l-.52.34c-.26-.27-.53-.54-.79-.8l.67-.36ZM53.41,162.1l-.21-.53.46-.33.4.5-.65.36ZM57.37,163.1c.08-.24-.48-.86-.43-.93l.76-.5.68.86-1.01.58ZM58.16,158.79l-.29-.54.46-.32.4.5-.57.36ZM60.99,162.59c.33-.2.51-.5.84-.63l.29.61.79.68c-.68.03-1.16.46-1.58.94-.07-.57-.43-1.03-.79-1.44.17,0,.31-.08.45-.16ZM56.42,170.57c-.26-.29-.5-.61-.71-.94l.72-.69c.04.64.6,1.35,1.22,1.51l-.98.39c-.08-.09-.17-.17-.25-.26ZM223.06,130.06c-.1,1.47-.15,2.95-.34,4.4-.19,1.46-.45,2.92-.73,4.35-.29,1.44-.62,2.88-1,4.29-.38,1.42-.82,2.83-1.29,4.22-.47,1.39-1.11,2.73-1.67,4.08-.56,1.35-1.57,2.5-2.22,3.81-.65,1.31-.88,2.85-1.61,4.12-.73,1.27-1.75,2.37-2.56,3.59-.81,1.22-1.78,2.32-2.67,3.48-.89,1.16-1.53,2.53-2.5,3.63-.96,1.1-2.01,2.14-3.04,3.18-1.03,1.03-2.05,2.11-3.15,3.08-1.1.96-2.24,1.91-3.4,2.8-1.16.89-2.58,1.42-3.81,2.23-1.21.81-2.37,1.71-3.65,2.44-1.77,1.02-1.61,1.29-3.38,2.31-1.77,1.02-1.79.98-3.56,2-1.77,1.02-1.82.92-3.59,1.94-1.77,1.02-1.9.8-3.66,1.82-1.77,1.02-1.69,1.15-3.46,2.17-1.77,1.02-1.91.77-3.68,1.79s-1.48,1.53-3.24,2.55c-1.27.73-2.58,1.42-3.88,2.06-1.31.65-2.67,1.22-4.02,1.78-1.35.56-2.89.61-4.27,1.07-1.38.47-2.76.92-4.16,1.29-1.41.38-2.73,1.15-4.16,1.43-1.43.28-2.89.54-4.33.73-1.45.19-2.92.25-4.38.34-1.46.09-2.92.18-4.38.18s-2.92-.24-4.37-.33c-1.45-.09-2.92-.16-4.36-.35-1.44-.19-2.85-.64-4.28-.92-1.43-.28-2.89-.44-4.3-.82-1.41-.37-2.88-.57-4.27-1.04-1.38-.47-2.54-1.52-3.89-2.08-1.34-.56-2.8-.86-4.11-1.5-1.3-.64-2.63-1.26-3.9-1.99-1.78-1.03-1.57-1.38-3.35-2.41-1.78-1.03-2.03-.58-3.81-1.61-1.78-1.03-1.67-1.22-3.45-2.24-1.55-.89-1.72-1.06-2.91-1.77.1-.11.2-.26.22-.34.18-.8-.36-1.34-1.16-1.16-.25.06-.48.33-.55.62-.94-.6-1.17-.86-2.58-1.68-1.78-1.03-1.89-.83-3.67-1.86-.17-.1-.32-.19-.46-.27.02,0,.03,0,.05.01,2.26.26,2.15-3.14-.13-2.72-.97.18-1.24,1.42-.77,2.16-.49-.34-.82-.61-1.51-1.05.35-1.11-.46-2.12-1.75-1.9-.18.03-.57.27-.78.5-.61-.33-1.22-.66-1.8-1.05-1.09-.73-2.21-1.42-3.26-2.2,1.19-1.21.27-3.18-1.51-2.87-.33.06-.75.31-.97.62-.28-.28-.57-.55-.87-.81-.44-.38-.91-.73-1.39-1.07.19.03.39.04.61.02,2.39-.26,2.02-4.08-.55-3.71-1.43.2-1.84,1.69-1.34,2.72-.23-.19-.45-.38-.65-.58,0,0,0,0-.01-.01.47-.77.32-1.73-.28-2.4l-.65-.47c.66-.03,1.21-.36,1.61-.87l.33-.57c-.14,2.1,2.85,2.81,3.71.93.96-2.09-1.69-3.81-3.24-2.16l-.39.65c.04-.84-.45-1.45-1.08-1.94.43-.02,1-.3,1.3-.61.15-.15.2-.36.36-.47.58,2.61,4.39,2.02,4.02-.75-.09-.65-.58-1.12-1.07-1.48.61-.03,1.09-.35,1.48-.79.12-.14.18-.34.32-.43.26,1.97,2.52,2.24,3.54,1.14,0,0,.02.01.02.02,1.15.75,2.45,1.25,3.65,1.94.51.3.86.53,1.15.73-.68.47-.89,1.58-.41,2.29.85,1.24,2.7.58,2.93-.57.4.23.71.42.96.58.04.17.09.33.11.38.28.7,1.13,1.07,1.8.82.16.09.33.19.52.3,1.45.84,1.72,1.05,2.69,1.63-.13-.03-.28-.04-.43-.03-1.86.14-1.65,2.9.12,2.86,1.4-.04,1.68-1.64.99-2.43.07.04.15.09.23.13.85.49,1.34.67,1.82.82-1.1,1.69,1.59,2.97,2.16.97,1.68.98,1.66,1.12,3.43,2.14,1.82,1.05,1.7,1.25,3.52,2.29,1.82,1.05,1.98.76,3.8,1.81,1.82,1.05,1.64,1.36,3.45,2.41,1.82,1.05,2.05.65,3.86,1.7,1.3.75,2.36,1.93,3.71,2.56,1.36.63,2.92.76,4.32,1.27,1.41.51,2.76,1.13,4.2,1.52,1.44.38,2.95.43,4.41.69,1.47.26,2.89.82,4.38.95,1.49.13,2.98-.1,4.47-.1s2.98.09,4.46-.04c1.48-.13,3-.06,4.47-.32,1.47-.26,2.93-.63,4.37-1.02,1.44-.38,2.86-.87,4.26-1.38,1.4-.51,2.68-1.3,4.04-1.94,1.35-.63,2.87-.95,4.16-1.7,1.76-1.02,1.65-1.22,3.41-2.24,1.76-1.02,1.86-.86,3.62-1.87,1.76-1.02,1.62-1.26,3.38-2.28,1.76-1.02,1.76-1.03,3.52-2.05,1.76-1.02,1.86-.86,3.62-1.87,1.76-1.02,1.56-1.37,3.33-2.39,1.76-1.02,1.92-.75,3.68-1.77,1.3-.75,2.47-1.67,3.69-2.52,1.23-.86,2.68-1.43,3.81-2.39,1.14-.96,1.9-2.35,2.95-3.4,1.06-1.06,2.13-2.08,3.08-3.22.96-1.14,1.78-2.38,2.63-3.6.85-1.22,1.63-2.48,2.38-3.77.75-1.29,1.45-2.58,2.09-3.94.63-1.35,1.24-2.7,1.75-4.1.51-1.4,1.14-2.76,1.53-4.2.39-1.44.77-2.89,1.03-4.36.26-1.46.12-2.98.25-4.47.13-1.48.46-2.95.46-4.45s-.28-2.84-.38-4.25c-.11-1.42.17-2.89-.04-4.29-.21-1.41-.49-2.82-.81-4.21-.32-1.39-.77-2.76-1.19-4.11-.42-1.36-.78-2.76-1.3-4.08-.52-1.32-1.48-2.46-2.1-3.74-.62-1.28-1-2.69-1.72-3.92-.71-1.23-1.79-2.23-2.59-3.41-.8-1.17-1.42-2.48-2.31-3.59-.88-1.11-2.07-1.96-3.03-3.01-.96-1.04-1.84-2.16-2.88-3.13-1.04-.97-1.9-2.15-3.01-3.04-1.11-.88-2.37-1.58-3.55-2.39-1.17-.8-2.25-1.78-3.49-2.49-2.01-1.16-2.3-.66-4.31-1.82-2.01-1.16-1.86-1.43-3.87-2.59-1.76-1.01-1.89-.79-3.65-1.8-1.76-1.01-1.77-.99-3.53-2.01-1.76-1.01-1.47-1.51-3.23-2.52-1.76-1.02-2-.6-3.76-1.61-1.76-1.01-1.52-1.43-3.27-2.45-1.76-1.02-1.86-.83-3.62-1.85-1.76-1.02-1.67-1.17-3.43-2.18-1.29-.74-2.73-1.19-4.1-1.73-1.38-.54-2.78-1.05-4.21-1.37-1.44-.33-2.92-.54-4.39-.65-1.47-.11-2.94.21-4.41.32-1.47.11-2.96.02-4.41.35-1.43.32-2.88.71-4.25,1.25-1.36.53-2.57,1.43-3.86,2.18-1.76,1.01-1.95.68-3.71,1.69-1.76,1.01-1.6,1.29-3.35,2.31-1.76,1.01-1.86.84-3.62,1.85-1.76,1.02-1.72,1.08-3.48,2.1-1.76,1.01-1.8.94-3.56,1.95-1.76,1.02-1.61,1.28-3.36,2.3s-1.72,1.08-3.48,2.09c-1.29.74-2.48,1.56-3.62,2.47-1.16.92-2.38,1.75-3.37,2.83-1,1.08-1.99,2.19-2.82,3.41-.15.23-.3.46-.45.69-.25-.45-.83-.75-1.35-.72-1.84.1-1.85,2.85,0,2.99-.15.29-.3.58-.45.87,0,0,0,0,0,0-1.68-.12-2.52,1.88-1.21,2.98-.11.33-.22.67-.33,1.01,0,0,0,0,0,0-1.23.42-1.6,2.07-.63,2.98l.02-.07c-.05.34-.1.68-.15,1.02-1.33.5-1.51,2.34-.44,3.19-.02.25-.04.49-.06.74-1.85.46-1.85,3.17,0,3.63,0,.07,0,.15,0,.23-1.76-.2-2.93,1.97-1.66,3.35.23.26.53.33.76.57-.78-.06-1.57.43-1.87,1.15l-.32-.8c-.26-.43-.66-.86-1.19-.93-.02-.1.08-.08.16-.09.52-.13.73-.11,1.18-.48,1.99-1.66-.45-4.62-2.45-3.09-1.1.84-1.05,2.38.04,3.19l.57.33c-.57-.05-1.25.2-1.65.61-.13.13-.34.67-.43.36-.27-.91-.72-1.52-1.73-1.62-.02-.12.1-.07.18-.07.55-.03.84.01,1.33-.33,1.33-.93.94-3.2-.64-3.53-2.15-.44-3.34,2.06-1.73,3.46l.72.39c-.97-.01-1.72.52-2.12,1.37-.05-1.88-2.23-2.7-3.56-1.4l-.5.9c.06-.63-.16-1.21-.58-1.63,0-.05-.01-.11-.02-.16-.02-.18-.03-.37-.04-.55,1.75-.65,1.7-3.14-.14-3.69,0-.07,0-.15,0-.22,0-.01,0-.03,0-.04,2.67.12,2.81-3.63.29-3.79.01-.12.02-.24.04-.36,1.32.42,2.7-.68,2.45-2.16-.15-.85-1.07-1.55-1.94-1.51.03-.15.05-.3.08-.45.5.15,1.22.09,1.53-.06,1.91-.9.85-3.8-1.11-3.44.03-.22.08-.44.13-.65.61.46,1.66.22,2.15-.36.86-1.02.3-2.56-.89-2.83.11-.24.22-.48.33-.73,1.37-.08,2.08-1.65,1.18-2.67.27-.55.54-1.1.82-1.65.66-1.28,1.28-2.57,2.06-3.78.05-.07.09-.15.14-.22.35.59,1.27.95,1.98.5,1.18-.76.52-2.53-.75-2.51.3-.48.62-.96.97-1.4,0,0,0,0,0,0,.46-.13.8-.54.89-1.01.68-.71,1.42-1.38,2.1-2.1.22-.23.44-.44.67-.65.1.1.21.19.28.23,1.1.54,1.92-.81,1.34-1.57.33-.26.65-.53.97-.8.68-.59,1.36-1.16,2.06-1.72.04.3.21.57.5.66,1.3.4,1.61-1.23.78-1.63,1.16-.83,2.19-1.88,3.44-2.6.01,0,.02-.01.03-.02-.12.58.71,1.26,1.33.69.46-.43.19-1.19-.26-1.34.75-.49,1.06-.78,2.34-1.52.88-.51,1.33-.75,1.78-.99,0,0,0,0,0,0-.13.43.94.49.7-.21-.03-.07-.06-.1-.11-.11.31-.17.67-.37,1.19-.67,1.76-1.02,1.95-.7,3.71-1.72,1.76-1.02,1.62-1.27,3.38-2.29q1.76-1.02,3.53-2.03c1.76-1.02,1.91-.77,3.67-1.79s1.7-1.12,3.47-2.14c1.25-.72,2.47-1.51,3.77-2.1,1.31-.6,2.65-1.17,4-1.63,1.36-.47,2.81-.64,4.21-.98,1.4-.34,2.81-.57,4.23-.77,1.42-.2,2.84-.44,4.27-.51,1.44-.07,2.86.14,4.3.21,1.43.07,2.9-.17,4.32.04,1.42.2,2.76.84,4.15,1.18,1.39.34,2.84.47,4.2.94,1.35.47,2.64,1.11,3.96,1.71,1.3.59,2.6,1.2,3.85,1.92,1.82,1.05,1.95.82,3.76,1.87,1.82,1.05,1.55,1.51,3.36,2.56,1.82,1.05,1.96.79,3.78,1.84,1.82,1.05,1.82,1.04,3.64,2.09,1.82,1.05,1.77,1.12,3.59,2.17,1.82,1.05,1.75,1.16,3.57,2.21,1.82,1.05,2.04.66,3.86,1.71,1.82,1.05,1.76,1.16,3.57,2.2,1.82,1.05,1.63,1.38,3.44,2.43,1.23.71,2.45,1.39,3.63,2.17,1.18.78,2.48,1.37,3.62,2.22,1.13.84,2.18,1.8,3.26,2.71,1.08.91,2.28,1.69,3.31,2.66,1.03.97,1.79,2.2,2.76,3.23.97,1.03,1.82,2.15,2.73,3.23.91,1.08,1.87,2.11,2.72,3.24.84,1.13,1.65,2.28,2.43,3.46.78,1.18,1.41,2.44,2.11,3.66.71,1.22,1.71,2.28,2.35,3.54.63,1.26,1.11,2.6,1.67,3.9.56,1.3.82,2.71,1.3,4.03.48,1.33,1.49,2.48,1.89,3.83.41,1.35.56,2.78.89,4.16.33,1.37.75,2.74.99,4.13.25,1.39.27,2.82.44,4.22.16,1.4.15,2.82.23,4.23.08,1.41.31,2.81.31,4.23,0,1.47.06,2.95-.04,4.4Z"/>
        </g>
        <g class="st3">
          <path class="st1" d="M140.26,116.67c0,9.76-4.45,13.88-8.7,13.88-4.94,0-8.66-5.06-8.66-13.96,0-8.22,3.64-13.8,8.66-13.8s8.7,5.02,8.7,13.88ZM131.59,125.74c1.86,0,2.91-3.08,2.91-9.07s-1.09-9.07-2.95-9.07-2.91,3.04-2.91,9.07,1.01,9.07,2.95,9.07Z"/>
        </g>
        <g class="st3">
          <path class="st1" d="M112.34,85.25l-.21,5.79-4.57.65-1.56,20.08-5.08.4.59-19.63-4.61.65.36-5.16,15.08-2.78Z"/>
        </g>
        <g class="st3">
          <path class="st1" d="M165.73,88.43l.3,4.66-6.37-.93.41,5.26,5.76.74.29,4.67-5.68-.65.81,10.28-5.39-.44-2.82-25.94,12.69,2.34Z"/>
        </g>
      </g>
    </g>
  </g>
  <g id="Logo-front">
    <path class="st5" d="M93.38,148.64l24.61,14.21c8.22,4.74,18.34,4.74,26.55,0l24.61-14.21c8.22-4.74,13.28-13.51,13.28-23v-28.42c0-9.49-5.06-18.25-13.28-23l-24.61-14.21c-8.22-4.74-18.34-4.74-26.55,0l-24.61,14.21c-8.22,4.74-13.28,13.51-13.28,23v28.42c0,9.49,5.06,18.25,13.28,23Z"/>
    <g>
      <path class="st1" d="M139.4,116.64c0,9.36-4.27,13.32-8.35,13.32-4.74,0-8.31-4.85-8.31-13.39,0-7.88,3.49-13.24,8.31-13.24s8.35,4.81,8.35,13.32ZM131.09,125.34c1.79,0,2.8-2.95,2.8-8.7s-1.05-8.7-2.83-8.7-2.8,2.91-2.8,8.7.97,8.7,2.83,8.7Z"/>
      <path class="st1" d="M112.62,86.51l-.2,5.55-4.39.62-1.5,19.26-4.87.38.57-18.82-4.42.63.35-4.95,14.46-2.67Z"/>
      <path class="st1" d="M163.84,89.56l.29,4.47-6.11-.9.4,5.05,5.52.71.28,4.48-5.45-.62.77,9.86-5.17-.42-2.71-24.88,12.17,2.25Z"/>
      <path class="st1" d="M168.48,73.59c-1.31-.76-1.12-1.09-2.43-1.85-1.31-.76-1.34-.71-2.65-1.47s-1.37-.65-2.69-1.4c-1.31-.76-1.33-.72-2.64-1.48-1.31-.76-1.45-.52-2.76-1.28s-1.05-1.21-2.37-1.96-1.4-.61-2.71-1.37-1.29-.79-2.6-1.55-1.43-.55-2.74-1.31c-.86-.5-1.58-1.28-2.48-1.68s-2.02-.27-2.96-.57-1.78-1-2.75-1.2-1.99-.15-2.97-.26-1.97-.39-2.96-.39-2.01-.01-2.99.09-1.88.76-2.85.97-1.96.27-2.9.58-1.79.8-2.7,1.2-1.75.86-2.61,1.35c-1.31.76-1.32.75-2.63,1.51s-1.4.6-2.72,1.35-1.4.59-2.72,1.35-1.15,1.04-2.46,1.79-1.41.58-2.72,1.34-1.27.83-2.58,1.59-1.48.47-2.79,1.23-1.28.81-2.6,1.56-1.29.8-2.6,1.55c-.86.5-1.62,1.16-2.42,1.74s-1.38,1.43-2.11,2.09-1.64,1.15-2.3,1.88-1.11,1.64-1.69,2.44-1.18,1.58-1.67,2.43-1.23,1.6-1.63,2.5-.69,1.87-1,2.81-.55,1.91-.76,2.88-.27,1.96-.37,2.95-.3,1.97-.3,2.96c0,1.51.43,1.51.43,3.03s-.01,1.51-.01,3.03-.43,1.51-.43,3.03.12,1.51.12,3.03.25,1.51.25,3.03-.45,1.51-.45,3.03.5,1.51.5,3.03-.37,1.52-.37,3.03-.06,1.52-.06,3.03c0,1,.48,1.96.58,2.94s.22,1.95.43,2.91.14,2.01.45,2.95.55,1.93.96,2.83,1.11,1.67,1.6,2.53.94,1.75,1.52,2.55,1.27,1.52,1.93,2.26,1.31,1.49,2.05,2.15,1.42,1.41,2.22,1.99,1.69,1.06,2.55,1.55c1.31.76,1.29.8,2.6,1.56s1.36.67,2.67,1.43,1.34.71,2.65,1.46,1.43.55,2.74,1.3,1.19.96,2.5,1.72,1.47.49,2.78,1.25,1.2.95,2.51,1.71,1.18.98,2.49,1.74,1.38.65,2.69,1.4c.86.5,1.76.93,2.66,1.33s1.9.56,2.84.86,1.88.6,2.84.8,1.9.74,2.88.84,2-.2,2.99-.2,1.98.04,2.96-.07,2.01-.03,2.98-.24,1.8-.9,2.75-1.21,1.82-.68,2.73-1.09,1.86-.65,2.72-1.15c1.31-.76,1.23-.9,2.54-1.66s1.29-.79,2.6-1.55,1.53-.38,2.84-1.13,1.15-1.03,2.46-1.79,1.47-.48,2.78-1.24,1.11-1.1,2.43-1.86,1.51-.41,2.82-1.16,1.35-.69,2.66-1.45,1.05-1.21,2.37-1.96c.86-.5,1.69-1,2.48-1.58s1.61-1.13,2.34-1.79,1.51-1.28,2.17-2.01,1.17-1.59,1.75-2.39,1.29-1.52,1.78-2.37.96-1.73,1.36-2.64.93-1.78,1.24-2.72.21-1.99.41-2.96.62-1.9.72-2.89.28-1.98.28-2.97c0-1.51-.22-1.51-.22-3.03s-.02-1.51-.02-3.03.06-1.51.06-3.03.16-1.51.16-3.03.04-1.51.04-3.03-.32-1.51-.32-3.03-.15-1.51-.15-3.03-.08-1.52-.08-3.03.48-1.52.48-3.03c0-1-.11-2-.21-2.98s-.4-1.95-.6-2.92-.62-1.88-.92-2.82-.46-1.94-.86-2.84-.79-1.83-1.29-2.68-1.14-1.63-1.72-2.43-1.36-1.43-2.02-2.17-1.27-1.5-2.01-2.16-1.43-1.37-2.23-1.95-1.72-.96-2.58-1.46ZM177.15,102.37c0,1.43-.39,1.43-.39,2.86s.06,1.43.06,2.86.13,1.43.13,2.86.04,1.43.04,2.86.27,1.43.27,2.86-.52,1.43-.52,2.86.17,1.43.17,2.86-.04,1.43-.04,2.86c0,1.06.16,2.13.01,3.17s-.73,1.99-1.03,3-.17,2.19-.6,3.15c-.3.67-1.22.8-1.95.8-1.39,0-1.39.21-2.77.21s-1.39-.23-2.77-.23-1.39-.07-2.77-.07c-1.32,0-2.45-1.14-1.97-2.37.55-1.41.72-1.34,1.27-2.74s.41-1.46.96-2.87.53-1.41,1.08-2.82.56-1.4,1.11-2.81.72-1.34,1.27-2.74.72-1.34,1.27-2.74c.55-1.41.25-1.52.8-2.93s.74-1.33,1.29-2.74.47-1.44,1.02-2.84.86-1.29,1.41-2.69.5-1.43,1.05-2.83c.92-2.35,1.62-2.29,1.62.23ZM88.27,135.73c-.73,0-1.21-.68-1.51-1.35-.43-.96-.84-1.91-1.13-2.92s-.64-2-.79-3.05-.26-2.09-.26-3.15c0-1.43-.27-1.43-.27-2.86s.52-1.43.52-2.86-.17-1.43-.17-2.86.04-1.43.04-2.86-.24-1.43-.24-2.86.37-1.43.37-2.86-.53-1.43-.53-2.86.45-1.43.45-2.86c0-2.52.59-2.67,1.5-.32.55,1.41.33,1.49.88,2.9s.49,1.43,1.04,2.84,1.03,1.22,1.58,2.62.37,1.47.92,2.88.69,1.35,1.24,2.76.57,1.4,1.12,2.8.54,1.41,1.09,2.82.38,1.47.92,2.88.37,1.47.92,2.88.85,1.29,1.4,2.7.36,1.48.91,2.89c.48,1.23-.39,2.59-1.71,2.59-1.39,0-1.39-.33-2.77-.33s-1.4,0-2.78.06-1.38.4-2.77.4ZM88.89,85.61c1.4-.26,1.47.12,2.87-.13s1.39-.31,2.79-.57,1.38-.38,2.78-.64,1.4-.3,2.8-.55,1.35-.52,2.76-.78,1.5.25,2.9,0,1.37-.42,2.77-.68,1.41-.22,2.81-.47,1.36-.49,2.76-.75,1.47.11,2.87-.15,1.31-.78,2.71-1.04,1.49.19,2.89-.07c1.47-.27,2.64,1.04,2.05,2.41-.6,1.39-.81,1.3-1.41,2.69s-.66,1.36-1.26,2.75-.13,1.59-.72,2.98-.77,1.32-1.37,2.71-.46,1.45-1.06,2.84-.58,1.4-1.18,2.79-.61,1.39-1.21,2.78-.77,1.32-1.37,2.71-.77,1.32-1.37,2.71-.3,1.52-.9,2.91-.78,1.31-1.38,2.7-.52,1.42-1.12,2.81-.9,1.26-1.5,2.65-.55,1.41-1.15,2.8-.56,1.41-1.16,2.8-.47,1.45-1.07,2.84c-.66,1.54-3.05,1.61-3.66.05-.53-1.35-.25-1.46-.78-2.81s-.74-1.27-1.26-2.62-.46-1.38-.98-2.73-.23-1.47-.76-2.82-.6-1.32-1.13-2.67-.54-1.34-1.07-2.69-.62-1.32-1.14-2.67-.39-1.4-.92-2.75-.93-1.19-1.46-2.54-.52-1.35-1.04-2.7-.13-1.51-.66-2.86-.63-1.31-1.16-2.66-.76-1.26-1.29-2.61-.11-1.51-.64-2.87c-.2-.52-.62-1.12-.36-1.61.1-.17.52-.17.62-.34.27-.47.61-1.03,1.15-1.13ZM139.03,79.41c1.4.26,1.33.64,2.73.9s1.41.2,2.81.46,1.43.13,2.83.39,1.41.22,2.81.48,1.45,0,2.85.25,1.31.77,2.71,1.03,1.43.09,2.83.35,1.39.3,2.8.56,1.45.03,2.85.28,1.33.62,2.74.88,1.5-.26,2.9,0,1.32.7,2.72.96c.54.1,1.06.24,1.34.71.1.17,0,.46.09.63.27.49.23.86.02,1.38-.53,1.35-.05,1.54-.58,2.89s-.7,1.28-1.23,2.63-.38,1.41-.91,2.76-.51,1.36-1.04,2.71-.54,1.35-1.06,2.7-.7,1.28-1.23,2.63-.7,1.28-1.23,2.63-.22,1.47-.75,2.82-.72,1.28-1.24,2.63-.45,1.38-.98,2.73-.84,1.23-1.36,2.58-.47,1.37-1,2.72-.49,1.37-1.01,2.72-.4,1.4-.92,2.75c-.61,1.56-3,1.71-3.66.17-.61-1.43-.34-1.54-.96-2.97s-.82-1.34-1.44-2.77-.54-1.46-1.16-2.89-.32-1.55-.94-2.98-.69-1.4-1.3-2.83-.6-1.37-1.2-2.74-.68-1.34-1.27-2.71-.45-1.43-1.05-2.8-.99-1.2-1.58-2.57-.58-1.38-1.17-2.75-.2-1.54-.79-2.91-.7-1.33-1.29-2.7-.82-1.27-1.41-2.65-.18-1.55-.77-2.92-1.06-1.17-1.65-2.55-.25-1.52-.84-2.89c-.59-1.38.51-2.98,1.98-2.7ZM128.91,86.34c.65-1.51,2.75-1.36,3.4.15.59,1.38.64,1.35,1.24,2.73s.71,1.33,1.3,2.7.63,1.36,1.22,2.74.84,1.27,1.43,2.65.12,1.58.71,2.96.74,1.3,1.33,2.66.55,1.38,1.14,2.75.8,1.27,1.39,2.64.25,1.51.83,2.88,1.07,1.16,1.66,2.52.17,1.54.76,2.91.78,1.28,1.37,2.65.37,1.46.96,2.82.53,1.39,1.11,2.76,1.06,1.16,1.65,2.53.41,1.44,1,2.81.73,1.3,1.32,2.67c.53,1.24-.56,2.92-1.91,2.92-1.43,0-1.43-.01-2.86-.01s-1.43-.19-2.86-.19-1.43-.19-2.86-.19-1.43.32-2.86.32-1.43-.2-2.86-.2-1.43.08-2.86.08-1.43-.33-2.86-.33-1.43.06-2.86.06-1.43.05-2.86.05-1.43.14-2.86.14-1.43.3-2.86.3-1.43-.29-2.86-.29-1.43.22-2.86.22-1.43-.08-2.86-.08c-1.35,0-2.06-1.4-1.53-2.64.59-1.37.52-1.4,1.11-2.77s.57-1.37,1.16-2.74.5-1.41,1.09-2.77.72-1.31,1.31-2.68.19-1.54.78-2.91.6-1.36,1.19-2.73.98-1.2,1.57-2.57.48-1.41,1.07-2.78.36-1.47.95-2.84,1-1.19,1.59-2.56.12-1.57.71-2.94.93-1.22,1.52-2.59.64-1.35,1.23-2.71.2-1.54.79-2.9.62-1.36,1.21-2.72.95-1.22,1.49-2.61.32-1.48.91-2.85ZM163.42,78.4c-1.41-.26-1.34-.64-2.76-.9s-1.42-.21-2.84-.47-1.44-.14-2.85-.4-1.42-.22-2.83-.48-1.46,0-2.87-.26-1.32-.77-2.73-1.03-1.44-.1-2.86-.36-1.41-.3-2.82-.56-1.46-.03-2.87-.29-1.35-.63-2.76-.89c-.89-.16-1.85-.69-1.85-1.59,0-1.74.45-1.74.45-3.49s-.21-1.74-.21-3.49c0-1.2,1.1-1.9,2.27-1.63,1.07.25,2.07.63,3.1,1.04s2.23.42,3.2.97c1.28.74,1.19.9,2.47,1.64s1.36.61,2.64,1.35,1.29.72,2.57,1.46,1.28.75,2.56,1.49,1.19.9,2.47,1.64,1.19.9,2.47,1.64,1.45.46,2.73,1.2,1.18.92,2.47,1.66c.6.34.57.24,1.23.62.47.28.15,1.21-.39,1.11ZM119.4,64.65c.96-.56,2.12-.68,3.14-1.08s2.04-.78,3.11-1.03c1.17-.27,2.22.47,2.22,1.67,0,1.74.04,1.74.04,3.49s.27,1.74.27,3.49c0,.9-.96,1.44-1.85,1.6-1.41.26-1.38.43-2.8.69s-1.42.22-2.83.48-1.37.49-2.78.75-1.48-.11-2.89.16-1.32.78-2.73,1.04-1.5-.19-2.91.08-1.38.47-2.79.73-1.46.03-2.87.29-1.43.19-2.84.46-1.32.77-2.73,1.03c-.54.1-.88-.91-.4-1.18.45-.26.31-.36.7-.58,1.31-.76,1.3-.77,2.61-1.53s1.31-.75,2.62-1.5,1.4-.59,2.71-1.35,1.4-.59,2.71-1.35,1.15-1.04,2.46-1.79,1.41-.58,2.72-1.34,1.3-.78,2.58-1.58,1.25-.86,2.56-1.62ZM95.8,144.96c-.77-.44-1.28-1.25-1.98-1.77-.88-.66-.53-1.72.57-1.72,1.79,0,1.79-.13,3.59-.13s1.79-.04,3.59-.04c.48,0,1.13.01,1.45.36,1.04,1.1.66,1.46,1.7,2.56s1.16.99,2.19,2.09,1,1.13,2.04,2.23,1.21.94,2.25,2.04.77,1.36,1.8,2.46c.68.72-.15,1.89-1.01,1.39-1.35-.78-1.13-1.17-2.48-1.95s-1.46-.6-2.81-1.38-1.24-.98-2.59-1.76-1.32-.84-2.67-1.62-1.58-.38-2.96-1.11-1.33-.84-2.68-1.63ZM128.49,160.97c-.96-1.02-.68-1.29-1.64-2.32s-1.01-.99-1.97-2.01-1.06-.94-2.02-1.96-.99-1-1.96-2.02-1.16-.84-2.12-1.86-.59-1.38-1.55-2.4-1.09-.91-2.05-1.94-.93-1.06-1.9-2.08c-1.13-1.2-.37-3.19,1.28-3.19,1.48,0,1.48.37,2.95.37s1.48-.53,2.95-.53,1.48.45,2.95.45,1.48-.21,2.95-.21,1.48.23,2.95.23,1.48.07,2.95.07,1.48-.51,2.95-.51,1.48.19,2.95.19,1.48-.15,2.95-.15,1.48-.02,2.96-.02,1.48.01,2.96.01c1.64,0,2.51,2.2,1.39,3.39-.96,1.02-1.1.9-2.07,1.92s-.73,1.25-1.69,2.27-1.11.89-2.08,1.91-.9,1.08-1.87,2.11-1.21.8-2.17,1.82-.92,1.06-1.89,2.09-.93,1.06-1.9,2.08-.86,1.12-1.83,2.15c-.34.36-.77.85-1.27.87-.58.02-1.16-.27-1.74-.29-.5-.02-1.09-.07-1.44-.43ZM165.77,144.96c-1.35.78-1.55.44-2.9,1.22s-1.32.83-2.68,1.61-1.29.89-2.64,1.67-1.33.81-2.69,1.59-1.22,1.02-2.57,1.8-1.61.33-2.97,1.12c-.86.5-1.56-.35-.88-1.07,1.04-1.1,1.07-1.07,2.1-2.17s.86-1.26,1.9-2.36,1.31-.85,2.34-1.95.65-1.46,1.69-2.56,1.37-.79,2.4-1.89c.33-.35.65-.69,1.12-.69,1.79,0,1.79.23,3.59.24s1.79.07,3.59.07c1.1,0,1.72,1.32.84,1.98-.7.52-1.49.96-2.26,1.41Z"/>
    </g>
  </g>
  <g id="text">
    <g>
      <path class="st4" d="M49.76,298.52c0,.69-.38,1-1,1h-15.56c-.61,0-1-.31-1-1l1.45-32.5,1.19-8.29h-16.21c-.61,0-1-.38-1-1v-9.89c0-.61.38-1,1-1h44.7c.61,0,1,.38,1,1v9.89c0,.61-.38,1-1,1l-14.06-.26-.99,20.89,1.48,20.16Z"/>
      <path class="st4" d="M92.33,299.52h-15.74c-.54,0-.92-.31-1.07-.84l-11.19-51.75c-.15-.69.23-1.07.92-1.07h14.87c.61,0,1,.38,1.07.92l4.13,32.23,7.68-32.23c.15-.54.54-.92,1.07-.92h14.57c.54,0,1,.31,1.15.84l5.11,36.71,6.77-36.63c.08-.54.46-.92,1.07-.92h13.49c.69,0,1.07.38.92,1.07l-11.27,51.75c-.15.54-.54.84-1.07.84h-16.64c-.54,0-1-.31-1.15-.84l-7.14-33.97-6.41,33.97c-.15.54-.61.84-1.15.84Z"/>
      <path class="st4" d="M155.34,298.52c0,.61-.38,1-1,1h-15.18c-.61,0-1-.38-1-1l1.14-31.3-1.14-20.38c0-.61.38-1,1-1h15.18c.61,0,1,.38,1,1l-1.44,28.77,1.44,22.9Z"/>
      <path class="st4" d="M11.23,360.26c-.7,0-1.14-.44-1.14-1.14v-9.08c0-.7.44-1.14,1.14-1.14l34.2.65,21.69-.65c.7,0,1.14.44,1.14,1.14v9.08c0,.7-.44,1.14-1.14,1.14l-31.3-.99-24.58.99Z"/>
      <path class="st4" d="M155.83,284.39c-.11-.69.18-1.08.87-1.12l15.01-.72c.54-.03,1.01.26,1.12.87,1.35,4.16,4.57,5.77,9.63,5.53,4.75-.23,7.37-1.5,7.24-4.34-.4-8.42-32.89.72-33.95-21.48-.5-10.41,7.06-17.84,22.45-18.57,12.79-.61,22.65,3.3,25.5,14.9.11.69-.18,1.08-.87,1.12l-15.09.72c-.61.03-.93-.26-1.12-.87-.74-2.57-3.41-3.98-7.78-3.77-3.68.18-6.39,1.3-6.26,3.98.38,7.89,33.2-.74,34.23,20.78.56,11.72-8.24,18.81-24.01,19.57-15.09.72-24.43-5.36-26.97-16.6Z"/>
      <path class="st4" d="M233.67,298.52c0,.69-.38,1-1,1h-15.56c-.61,0-1-.31-1-1l2.26-27.04-2.03-14.34-12.3.6c-.61,0-1-.38-1-1v-9.89c0-.61.38-1,1-1h43.2c.61,0,1,.38,1,1v9.89c0,.61-.38,1-1,1l-13.8-.6-1.73,18.84,1.96,22.55Z"/>
      <path class="st4" d="M56.19,345.91c0,.52-.29.74-.74.74h-11.39c-.46,0-.74-.29-.74-.74l.46-19.35-.46-19.23c0-.46.29-.74.74-.74h28.45c.46,0,.74.29.74.74v9.02c0,.46-.29.74-.74.74l-17.31.48.76,5.83,15.2-.33c.46,0,.74.29.74.74v9.67c0,.46-.29.74-.74.74l-15.15-.95.18,12.63Z"/>
      <path class="st4" d="M102.95,359.26c0,.69-.38,1-1,1h-15.26c-.61,0-1-.38-1-1l.61-25.91-.61-25.76c0-.61.38-1,1-1h38.1c.61,0,1,.38,1,1v9.89c0,.61-.38,1-1,1l-22.83-1.37-1.19,12.4,23.1-2.44c.61,0,1,.38,1,1v11.5c0,.61-.38,1-1,1l-21.71-1.9.78,20.61Z"/>
      <path class="st4" d="M159.34,307.43l16.79,51.68c.23.69-.15,1.15-.84,1.15h-15.33c-.54,0-.92-.23-1.07-.84l-3.43-11.68-16.89,1.49-2.84,10.2c-.15.61-.54.84-1.07.84h-15.26c-.69,0-1.07-.46-.84-1.15l19.2-51.68c.15-.54.61-.84,1.15-.84h19.36c.54,0,.92.23,1.07.84ZM146.61,315.7l-4.51,20.63,12.21,1.19-7.69-21.82Z"/>
      <path class="st4" d="M198.19,359.26c0,.69-.38,1-1,1h-15.56c-.61,0-1-.31-1-1l.46-26.14,2.15-15.45-16.18.81c-.61,0-1-.38-1-1v-9.89c0-.61.38-1,1-1h44.7c.61,0,1,.38,1,1v9.89c0,.61-.38,1-1,1l-15.39-.61,1.36,15.25.46,26.14Z"/>
      <path class="st4" d="M256,349.29v9.97c0,.61-.38,1-1,1h-40.02c-.61,0-1-.38-1-1l.61-24.92-.61-26.76c0-.61.38-1,1-1h39.41c.61,0,1,.38,1,1v9.89c0,.61-.38,1-1,1h-23.23l-.81,9.44,21.43-1.62c.61,0,1,.38,1,1v9.89c0,.61-.38,1-1,1l-22.33-1.86,1.71,11.98h23.84c.61,0,1,.38,1,1Z"/>
      <path class="st4" d="M45.23,327.31l-10.99,18.83c-.17.34-.46.52-.86.52h-15.86c-.4,0-.69-.17-.86-.52l-10.53-18.83c-.17-.34-.17-.69,0-1.03l10.76-19.17c.17-.34.46-.52.86-.52h15.8c.4,0,.69.17.86.52l10.82,19.17c.17.34.17.69,0,1.03ZM19.38,326.79l6.3,11.77,6.36-11.77-6.36-12.17-6.3,12.17Z"/>
    </g>
    <g>
      <path class="st0" d="M63.92,394.1c0-11.37,7.6-18.96,19.06-18.96,9.12,0,15.24,4.33,17.18,13.2.1.46-.1.71-.56.71h-9.69c-.36,0-.66-.2-.71-.61-.82-3.42-2.91-5.05-6.37-5.05-4.64,0-7.19,3.72-7.19,10.35s2.55,10.65,7.44,10.65c3.31,0,5.45-1.58,6.17-4.89.1-.41.31-.61.71-.61h9.84c.46,0,.71.26.61.71-1.99,8.77-8.16,13.05-17.33,13.05-11.57,0-19.17-7.95-19.17-18.55Z"/>
      <path class="st0" d="M127.48,376.61l11.16,34.36c.15.46-.1.76-.56.76h-10.19c-.36,0-.61-.15-.71-.56l-1.99-6.78h-11.52l-1.89,6.78c-.1.41-.36.56-.71.56h-10.14c-.46,0-.71-.31-.56-.76l11.57-34.36c.1-.36.41-.56.76-.56h14.07c.36,0,.61.15.71.56ZM119.23,384.16l-3.21,11.67h6.63l-3.42-11.67Z"/>
      <path class="st0" d="M152.26,411.07c0,.46-.26.66-.66.66h-10.14c-.41,0-.66-.25-.66-.66l.41-17.23-.41-17.13c0-.41.25-.66.66-.66h25.33c.41,0,.66.26.66.66v6.58c0,.41-.25.66-.66.66h-14.53l-.2,6.78h14.12c.41,0,.66.25.66.66v6.58c0,.41-.25.66-.66.66h-14.12l.2,12.44Z"/>
      <path class="st0" d="M198.24,404.45v6.63c0,.41-.26.66-.66.66h-26.61c-.41,0-.66-.25-.66-.66l.41-16.57-.41-17.79c0-.41.25-.66.66-.66h26.2c.41,0,.66.26.66.66v6.58c0,.41-.25.66-.66.66h-15.44l-.15,5.2h13.87c.41,0,.66.26.66.66v6.58c0,.41-.26.66-.66.66h-13.87l.15,6.73h15.85c.41,0,.66.25.66.66Z"/>
    </g>
  </g>
</svg>